<svg xmlns="http://www.w3.org/2000/svg" width="3.03em" height="1em" viewBox="0 0 512 169">
  <rect x="0" y="0" width="200" height="200" fill="rgba(255, 255, 255, 0)" />
  <path
    d="M84.026 4.223c1.376 1.708 2.078 4.014 3.482 8.626l30.668 100.744A127.624 127.624 0 0 0 81.51 101.18L61.543 33.702a2.599 2.599 0 0 0-4.987.008L36.83 101.146A127.617 127.617 0 0 0 0 113.578L30.818 12.825c1.409-4.603 2.113-6.905 3.49-8.61a11.329 11.329 0 0 1 4.59-3.398C40.933 0 43.34 0 48.155 0h22.012c4.82 0 7.23 0 9.266.82a11.33 11.33 0 0 1 4.594 3.403Z" />
  <path fill="#FF5D01"
    d="M87.695 118.388c-5.055 4.323-15.146 7.271-26.77 7.271c-14.266 0-26.223-4.441-29.396-10.414c-1.135 3.423-1.389 7.34-1.389 9.844c0 0-.747 12.29 7.8 20.837a8.037 8.037 0 0 1 8.037-8.036c7.607 0 7.599 6.637 7.592 12.022v.48c0 8.173 4.995 15.18 12.099 18.133a16.473 16.473 0 0 1-1.657-7.223c0-7.795 4.577-10.698 9.896-14.07c4.231-2.685 8.933-5.667 12.174-11.649a21.968 21.968 0 0 0 2.65-10.494c0-2.337-.363-4.588-1.036-6.701Z" />
</svg>