<svg xmlns="http://www.w3.org/2000/svg" fill="none" viewBox="-0.5 -0.5 14 14" height="{{size}}" width="{{size}}">
  <g id="track-select-right-tool">
    <path id="Vector 1027" stroke="{{color}}" stroke-linecap="round" stroke-linejoin="round"
      d="M0.6964285714285714 3.7142857142857144v-0.23214285714285715a0.9285714285714286 0.9285714285714286 0 0 1 0.9285714285714286 -0.9285714285714286H1.8571428571428572"
      stroke-width="1"></path>
    <path id="Vector 1036" stroke="{{color}}" stroke-linecap="round" stroke-linejoin="round"
      d="M8.125 3.7142857142857144v-0.23214285714285715a0.9285714285714286 0.9285714285714286 0 0 0 -0.9285714285714286 -0.9285714285714286H6.964285714285714"
      stroke-width="1"></path>
    <path id="Vector 1070" stroke="{{color}}" stroke-linecap="round" stroke-linejoin="round"
      d="M0.6964285714285714 6.035714285714286v0.9285714285714286" stroke-width="1"></path>
    <path id="Vector 1072" stroke="{{color}}" stroke-linecap="round" stroke-linejoin="round"
      d="m4.875 2.553571428571429 -0.9285714285714286 0" stroke-width="1"></path>
    <path id="Vector 1078" stroke="{{color}}" stroke-linecap="round" stroke-linejoin="round"
      d="M8.125 9.285714285714286v0.23214285714285715a0.9285714285714286 0.9285714285714286 0 0 1 -0.9285714285714286 0.9285714285714286H6.964285714285714"
      stroke-width="1"></path>
    <path id="Vector 1079" stroke="{{color}}" stroke-linecap="round" stroke-linejoin="round"
      d="M0.6964285714285714 9.285714285714286v0.23214285714285715a0.9285714285714286 0.9285714285714286 0 0 0 0.9285714285714286 0.9285714285714286H1.8571428571428572"
      stroke-width="1"></path>
    <path id="Vector 1080" stroke="{{color}}" stroke-linecap="round" stroke-linejoin="round"
      d="m3.9464285714285716 10.446428571428571 0.9285714285714286 0" stroke-width="1"></path>
    <path id="Vector_2" stroke="{{color}}" stroke-linecap="round" stroke-linejoin="round" d="m5.571428571428571 6.5 6.5 0"
      stroke-width="1"></path>
    <path id="Vector_3" stroke="{{color}}" stroke-linecap="round" stroke-linejoin="round"
      d="M10.214285714285715 4.642857142857143c0.6964285714285714 0 1.625 0.9285714285714286 1.8571428571428572 1.8571428571428572 -0.23214285714285715 0.9285714285714286 -1.1607142857142858 1.8571428571428572 -1.8571428571428572 1.8571428571428572"
      stroke-width="1"></path>
  </g>
</svg>