<?xml version="1.0" encoding="UTF-8"?>
<svg version="1.1" viewBox="0 0 25 24" xmlns="http://www.w3.org/2000/svg"
  xmlns:xlink="http://www.w3.org/1999/xlink" width="20px" height="20px">
  <!--Generated by IJSVG (https://github.com/iconjar/IJSVG)-->
  <path fill="#000" fill-rule="evenodd"
    d="M2.5,9c0.27614,0 0.5,0.22386 0.5,0.5v5c0,0.2961 0.15232,0.6326 0.54568,0.9943c0.39379,0.3621 0.9912,0.7111 1.77158,1.0146c1.55758,0.6057 3.74334,0.9911 6.18274,0.9911c1.4073,0 2.7336,-0.1283 3.9051,-0.3547c0.2712,-0.0524 0.5334,0.1249 0.5858,0.396c0.0524,0.2711 -0.1249,0.5334 -0.396,0.5858c-1.2384,0.2393 -2.6285,0.3729 -4.0949,0.3729c-2.53116,0 -4.8454,-0.3981 -6.54518,-1.0591c-0.84831,-0.3299 -1.56891,-0.7351 -2.08597,-1.2105c-0.51749,-0.4758 -0.86885,-1.06 -0.86885,-1.7304v-5c0,-0.27614 0.22386,-0.5 0.5,-0.5Zm18,0c0.2761,0 0.5,0.22386 0.5,0.5v5c0,0.2761 -0.2239,0.5 -0.5,0.5c-0.2761,0 -0.5,-0.2239 -0.5,-0.5v-5c0,-0.27614 0.2239,-0.5 0.5,-0.5Z"
    style="stroke: currentColor; stroke-width: 1px; stroke-linecap: round;" />
  <g fill="#000" fill-rule="evenodd">
    <path
      d="M2.5,13.5c0.27614,0 0.5,0.2239 0.5,0.5v5c0,0.2961 0.15232,0.6326 0.54568,0.9943c0.39379,0.3621 0.9912,0.7111 1.77158,1.0146c1.55758,0.6057 3.74334,0.9911 6.18274,0.9911c2.1925,0 4.1827,-0.3114 5.6962,-0.8159c0.2619,-0.0873 0.5451,0.0542 0.6324,0.3162c0.0874,0.262 -0.0542,0.5451 -0.3162,0.6325c-1.6341,0.5447 -3.734,0.8672 -6.0124,0.8672c-2.53116,0 -4.8454,-0.3981 -6.54518,-1.0591c-0.84831,-0.3299 -1.56891,-0.7351 -2.08597,-1.2105c-0.51749,-0.4758 -0.86885,-1.06 -0.86885,-1.7304v-5c0,-0.2761 0.22386,-0.5 0.5,-0.5Z"
      style="stroke: currentColor; stroke-width: 1px; stroke-linecap: round;" />
    <path
      d="M3.54568,4.00571c-0.39336,0.36167 -0.54568,0.69823 -0.54568,0.99429c0,0.29606 0.15232,0.63262 0.54568,0.99429c0.39379,0.36206 0.9912,0.7111 1.77158,1.01458c1.55758,0.60573 3.74334,0.99113 6.18274,0.99113c2.4394,0 4.6252,-0.3854 6.1827,-0.99113c0.7804,-0.30348 1.3778,-0.65252 1.7716,-1.01458c0.3934,-0.36167 0.5457,-0.69823 0.5457,-0.99429c0,-0.29606 -0.1523,-0.63262 -0.5457,-0.99429c-0.3938,-0.36206 -0.9912,-0.7111 -1.7716,-1.01458c-1.5575,-0.60573 -3.7433,-0.99113 -6.1827,-0.99113c-2.4394,0 -4.62516,0.3854 -6.18274,0.99113c-0.78038,0.30348 -1.37779,0.65252 -1.77158,1.01458Zm1.40914,-1.94659c1.69978,-0.66102 4.01402,-1.05912 6.54518,-1.05912c2.5312,0 4.8454,0.3981 6.5452,1.05912c0.8483,0.3299 1.5689,0.73505 2.086,1.21045c0.5174,0.4758 0.8688,1.06 0.8688,1.73043c0,0.67043 -0.3514,1.25463 -0.8688,1.73043c-0.5171,0.4754 -1.2377,0.88055 -2.086,1.21045c-1.6998,0.66102 -4.014,1.05912 -6.5452,1.05912c-2.53116,0 -4.8454,-0.3981 -6.54518,-1.05912c-0.84831,-0.3299 -1.56891,-0.73505 -2.08597,-1.21045c-0.51749,-0.4758 -0.86885,-1.06 -0.86885,-1.73043c0,-0.67043 0.35136,-1.25463 0.86885,-1.73043c0.51706,-0.4754 1.23766,-0.88055 2.08597,-1.21045Z"
      style="stroke: currentColor; stroke-width: 1px; stroke-linecap: round;" />
    <path
      d="M2.5,4.5c0.27614,0 0.5,0.22386 0.5,0.5v5c0,0.2961 0.15232,0.6326 0.54568,0.9943c0.39379,0.3621 0.9912,0.7111 1.77158,1.0146c1.55758,0.6057 3.74334,0.9911 6.18274,0.9911c2.4394,0 4.6252,-0.3854 6.1827,-0.9911c0.7804,-0.3035 1.3778,-0.6525 1.7716,-1.0146c0.3934,-0.3617 0.5457,-0.6982 0.5457,-0.9943v-5c0,-0.27614 0.2239,-0.5 0.5,-0.5c0.2761,0 0.5,0.22386 0.5,0.5v5c0,0.6704 -0.3514,1.2546 -0.8688,1.7304c-0.5171,0.4754 -1.2377,0.8806 -2.086,1.2105c-1.6998,0.661 -4.014,1.0591 -6.5452,1.0591c-2.53116,0 -4.8454,-0.3981 -6.54518,-1.0591c-0.84831,-0.3299 -1.56891,-0.7351 -2.08597,-1.2105c-0.51749,-0.4758 -0.86885,-1.06 -0.86885,-1.7304v-5c0,-0.27614 0.22386,-0.5 0.5,-0.5Z"
      style="stroke: currentColor; stroke-width: 1px; stroke-linecap: round;" />
    <path
      d="M19.3169,15.0604c-0.1428,-0.0317 -0.291,-0.0317 -0.4338,0l-2.8831,0.6407v1.2907c0,2.0833 1.177,3.9877 3.0403,4.9194l0.0597,0.0298l0.0597,-0.0298c1.8633,-0.9317 3.0403,-2.8361 3.0403,-4.9194v-1.2907l-2.8831,-0.6407Zm-0.6508,-0.9762c0.2858,-0.0635 0.582,-0.0635 0.8678,0l2.883,0.6407c0.4576,0.1017 0.7831,0.5075 0.7831,0.9762v1.2907c0,2.462 -1.391,4.7128 -3.5931,5.8138l-0.2833,0.1416c-0.1408,0.0704 -0.3064,0.0704 -0.4472,0l-0.2833,-0.1416c-2.2021,-1.101 -3.5931,-3.3518 -3.5931,-5.8138v-1.2907c0,-0.4687 0.3255,-0.8745 0.7831,-0.9762l2.883,-0.6407Z"
      style="stroke: currentColor; stroke-width: 1px; stroke-linecap: round;" />
  </g>
</svg>