<svg xmlns="http://www.w3.org/2000/svg" xml:space="preserve" width="64" height="64" viewBox="0 0 28 28"><path fill="#FFE577" d="M21.625 24.655H4.375A4.376 4.376 0 0 1 0 20.279V6.614a4.375 4.375 0 0 1 4.375-4.375h17.249A4.375 4.375 0 0 1 26 6.614V20.28a4.375 4.375 0 0 1-4.375 4.375z"/><path d="M25.5 26h-23a.5.5 0 0 1-.5-.5v-23a.5.5 0 0 1 .5-.5h23a.5.5 0 0 1 .5.5v23a.5.5 0 0 1-.5.5zM3 25h22V3H3v22zm17.165-.886a6.71 6.71 0 0 1-1.068-.072c-1.03-.185-2.011-.699-2.623-1.377-.932-1.029-.73-1.359-.654-1.483.077-.117.163-.178.388-.307l.003-.002c.103-.058.487-.28.85-.491l.662-.383a.498.498 0 0 1 .664.152l.139.205c.162.246.525.585.691.673.585.308 1.364.233 1.671-.042a.351.351 0 0 0 .135-.275c-.001-.222-.011-.235-.085-.343-.108-.155-.492-.365-1.368-.746-1.242-.535-1.809-.888-2.332-1.451a3.53 3.53 0 0 1-.739-1.326c-.118-.437-.142-1.326-.056-1.733.285-1.337 1.314-2.298 2.754-2.571.475-.091 1.482-.062 1.958.057a3.388 3.388 0 0 1 1.678.968c.01.012.597.646.676.964.095.356.113.422-1.819 1.622-.287.191-.591.069-.887-.372-.233-.338-.419-.41-.701-.43-.223-.016-.402.028-.501.121-.071.067-.107.169-.106.304a.402.402 0 0 0 .03.182l.018.034c.075.156.263.3 1.081.653 1.747.752 2.507 1.263 3.008 2.023.579.878.709 2.217.317 3.256-.431 1.133-1.471 1.892-2.929 2.138a5.675 5.675 0 0 1-.855.052zm-3.24-2.498c.1.142.212.292.29.378.469.52 1.238.917 2.058 1.063.373.066 1.241.077 1.578.018 1.097-.186 1.864-.72 2.164-1.507.277-.733.184-1.744-.217-2.351-.378-.574-1.027-.992-2.57-1.656-.9-.39-1.325-.633-1.566-1.099l-.007-.014a1.346 1.346 0 0 1-.16-.636c-.001-.451.145-.811.423-1.072.309-.29.744-.425 1.255-.39.57.04.993.265 1.353.722.295-.19.597-.392.82-.544a4.977 4.977 0 0 0-.235-.273 2.35 2.35 0 0 0-1.195-.687c-.329-.083-1.201-.107-1.531-.046-1.046.199-1.762.854-1.962 1.796-.052.248-.032.987.034 1.234.105.353.286.678.524.947.411.442.877.726 1.987 1.204 1.162.505 1.546.74 1.793 1.094.199.289.262.5.262.87.001.44-.173.815-.477 1.072-.644.578-1.875.658-2.794.173-.277-.146-.664-.494-.923-.82l-.265.153-.639.371zm-4.276 2.376h-2.118a.5.5 0 0 1-.5-.5v-8.006H7.539a.5.5 0 0 1-.5-.5v-.924c0-1.016 0-1.178.19-1.324a.206.206 0 0 1 .04-.029l.018-.012.001.002c.227-.111.921-.109 4.318-.104l4.021.011a.5.5 0 0 1 .499.494l.018 1.883a.499.499 0 0 1-.5.503h-2.495v8.006a.5.5 0 0 1-.5.5zm-1.618-1h1.118v-8.006a.5.5 0 0 1 .5-.5h2.49l-.008-.882-3.527-.01c-1.646-.005-2.928 0-3.562.007l-.002.461v.424h2.492a.5.5 0 0 1 .5.5v8.006z"/></svg>