<svg xmlns="http://www.w3.org/2000/svg" xmlns:xlink="http://www.w3.org/1999/xlink" viewBox="0,0,256,256" width="64px" height="64px"><defs><linearGradient x1="32.253" y1="19" x2="32.253" y2="55" gradientUnits="userSpaceOnUse" id="color-1"><stop offset="0" stop-color="#15140a"></stop><stop offset="1" stop-color="#ffec22"></stop></linearGradient><linearGradient x1="27.777" y1="9" x2="27.777" y2="51" gradientUnits="userSpaceOnUse" id="color-2"><stop offset="0" stop-color="#13181c"></stop><stop offset="1" stop-color="#f6c244"></stop></linearGradient></defs><g fill="none" fill-rule="nonzero" stroke="none" stroke-width="1" stroke-linecap="butt" stroke-linejoin="miter" stroke-miterlimit="10" stroke-dasharray="" stroke-dashoffset="0" font-family="none" font-weight="none" font-size="none" text-anchor="none" style="mix-blend-mode: normal"><g transform="scale(4,4)"><path d="M23.649,55c-5.569,0.016 -10.503,-1.053 -13.569,-2.926c-2.772,-1.689 -4.897,-4.426 -6.313,-8.134c-1.234,-3.362 -1.809,-6.648 -1.764,-10.058c-0.001,-0.759 0.299,-1.486 0.846,-2.033c0.547,-0.547 1.274,-0.849 2.047,-0.849h38.594c0.211,-0.009 1.491,-0.215 2.669,-0.661c-0.897,-1.902 -1.095,-4.049 -0.567,-6.274c0.326,-1.358 0.875,-2.639 1.632,-3.81l0.573,-0.826c0.297,-0.426 0.872,-0.555 1.32,-0.295l0.843,0.485c0.387,0.228 3.513,2.169 4.5,6.021c0.556,-0.061 1.116,-0.092 1.674,-0.095c3.385,0 5.101,1.219 5.411,1.463c0,0 0,0 0,0.001l0.58,0.458c0.333,0.263 0.463,0.707 0.326,1.107l-0.24,0.702c-0.451,1.142 -1.133,2.15 -1.99,2.961c-1.19,1.176 -2.648,2.614 -7.103,2.732c-0.897,2.271 -2.919,6.724 -6.196,10.427c-1.909,2.156 -4.143,3.981 -6.64,5.425c-3.022,1.708 -6.279,2.889 -9.687,3.513c-2.474,0.46 -4.623,0.666 -6.946,0.666zM48.916,21.325l-0.03,0.044c-0.616,0.952 -1.075,2.024 -1.347,3.159c-0.501,2.114 -0.212,4.045 0.859,5.736c0.147,0.232 0.192,0.516 0.125,0.782c-0.067,0.266 -0.243,0.493 -0.483,0.627c-1.697,0.943 -4.009,1.307 -4.511,1.325l-38.633,0.002c-0.239,0 -0.464,0.093 -0.633,0.263c-0.169,0.169 -0.262,0.394 -0.261,0.633c-0.042,3.218 0.478,6.183 1.638,9.343c1.25,3.271 3.096,5.674 5.482,7.128c2.759,1.686 7.359,2.639 12.523,2.633c2.199,0 4.236,-0.196 6.588,-0.633c3.19,-0.584 6.237,-1.688 9.057,-3.282c2.303,-1.331 4.37,-3.02 6.135,-5.015c3.497,-3.949 5.527,-8.99 6.066,-10.441c0.146,-0.393 0.477,-0.66 0.941,-0.651c0.031,0 0.062,0 0.093,0c4.1,0 5.16,-1.046 6.282,-2.154c0.682,-0.646 1.195,-1.403 1.523,-2.227l-0.025,-0.02c-0.062,-0.048 -1.351,-1.032 -4.167,-1.032c-0.768,0.004 -1.545,0.07 -2.307,0.199c-0.267,0.042 -0.538,-0.02 -0.754,-0.178c-0.218,-0.158 -0.362,-0.397 -0.401,-0.664c-0.533,-3.64 -3.592,-5.479 -3.723,-5.555z" fill="url(#color-1)"></path><path d="M23.534,51c-4.726,0 -8.972,-0.874 -11.367,-2.339c-2.003,-1.221 -3.571,-3.288 -4.664,-6.147c-0.93,-2.538 -1.415,-4.96 -1.492,-7.514l37.591,-0.002c0.736,-0.027 3.386,-0.452 5.409,-1.576l0.533,-0.296c-0.602,1.578 -2.489,6.086 -5.617,9.619c-1.623,1.833 -3.522,3.385 -5.646,4.612c-2.601,1.471 -5.437,2.499 -8.406,3.042c-2.238,0.416 -4.156,0.601 -6.226,0.601zM13,28v-4c0,-0.552 -0.448,-1 -1,-1h-4c-0.552,0 -1,0.448 -1,1v4c0,0.552 0.448,1 1,1h4c0.552,0 1,-0.448 1,-1zM20,28v-4c0,-0.552 -0.448,-1 -1,-1h-4c-0.552,0 -1,0.448 -1,1v4c0,0.552 0.448,1 1,1h4c0.552,0 1,-0.448 1,-1zM27,28v-4c0,-0.552 -0.448,-1 -1,-1h-4c-0.552,0 -1,0.448 -1,1v4c0,0.552 0.448,1 1,1h4c0.552,0 1,-0.448 1,-1zM34,28v-4c0,-0.552 -0.448,-1 -1,-1h-4c-0.552,0 -1,0.448 -1,1v4c0,0.552 0.448,1 1,1h4c0.552,0 1,-0.448 1,-1zM20,21v-4c0,-0.552 -0.448,-1 -1,-1h-4c-0.552,0 -1,0.448 -1,1v4c0,0.552 0.448,1 1,1h4c0.552,0 1,-0.448 1,-1zM27,21v-4c0,-0.552 -0.448,-1 -1,-1h-4c-0.552,0 -1,0.448 -1,1v4c0,0.552 0.448,1 1,1h4c0.552,0 1,-0.448 1,-1zM34,21v-4c0,-0.552 -0.448,-1 -1,-1h-4c-0.552,0 -1,0.448 -1,1v4c0,0.552 0.448,1 1,1h4c0.552,0 1,-0.448 1,-1zM34,14v-4c0,-0.552 -0.448,-1 -1,-1h-4c-0.552,0 -1,0.448 -1,1v4c0,0.552 0.448,1 1,1h4c0.552,0 1,-0.448 1,-1zM41,28v-4c0,-0.552 -0.448,-1 -1,-1h-4c-0.552,0 -1,0.448 -1,1v4c0,0.552 0.448,1 1,1h4c0.552,0 1,-0.448 1,-1z" fill="url(#color-2)"></path></g></g></svg>