<svg xmlns="http://www.w3.org/2000/svg" xmlns:xlink="http://www.w3.org/1999/xlink" viewBox="0,0,256,256" width="64px" height="64px"><defs><linearGradient x1="32" y1="7" x2="32" y2="57" gradientUnits="userSpaceOnUse" id="color-1"><stop offset="0" stop-color="#6b3b96"></stop><stop offset="1" stop-color="#ffd222"></stop></linearGradient><linearGradient x1="31.498" y1="13.875" x2="31.498" y2="48.751" gradientUnits="userSpaceOnUse" id="color-2"><stop offset="0" stop-color="#a464de"></stop><stop offset="1" stop-color="#dfcf22"></stop></linearGradient><linearGradient x1="38.5" y1="13.875" x2="38.5" y2="48.751" gradientUnits="userSpaceOnUse" id="color-3"><stop offset="0" stop-color="#a464de"></stop><stop offset="1" stop-color="#dfcf22"></stop></linearGradient><linearGradient x1="24" y1="14.083" x2="24" y2="48.869" gradientUnits="userSpaceOnUse" id="color-4"><stop offset="0" stop-color="#a464de"></stop><stop offset="1" stop-color="#dfcf22"></stop></linearGradient></defs><g fill="none" fill-rule="nonzero" stroke="none" stroke-width="none" stroke-linecap="butt" stroke-linejoin="miter" stroke-miterlimit="10" stroke-dasharray="" stroke-dashoffset="0" font-family="none" font-weight="none" font-size="none" text-anchor="none" style="mix-blend-mode: normal"><g transform="scale(4,4)"><path d="M12,51.636v-39.272c0,-2.41 1.99,-4.364 4.444,-4.364h31.111c2.455,0 4.445,1.954 4.445,4.364v39.273c0,2.409 -1.99,4.363 -4.444,4.363h-31.112c-2.454,0 -4.444,-1.954 -4.444,-4.364z" fill="none" stroke="url(#color-1)" stroke-width="2"></path><path d="M42,30.554v18.446h-7v-18.5c0,-0.25 -0.26,-0.5 -1.25,-0.5c-1.556,0 -4.519,0.321 -11.125,2.875c0,0 -0.375,0.125 -0.614,0.125c-1.136,0 -1.011,-1.75 -1.011,-1.75v-17.25h7v11c1.535,-0.471 4.215,-1 6.75,-1c4.727,0 7.25,2.237 7.25,6.554z" fill="url(#color-2)" stroke="none" stroke-width="1"></path><path d="M44,14.03l-0.43,1.283c-0.036,0.116 -0.906,2.673 -3.516,6.31l-0.269,0.377h-6.785l1.193,-1.573c1.596,-2.103 3.033,-5.78 3.051,-5.818l0.233,-0.579z" fill="url(#color-3)" stroke="none" stroke-width="1"></path><path d="M27,43l-6,6v-12z" fill="url(#color-4)" stroke="none" stroke-width="1"></path></g></g></svg>