<svg xmlns="http://www.w3.org/2000/svg" fill="none" viewBox="-0.5 -0.5 24 24" height="24" width="24"><path stroke="#000000" stroke-linecap="round" stroke-linejoin="round" d="M11.496166666666667 1.6972083333333332a10.049083333333334 10.049083333333334 0 0 0 -3.1759166666666667 19.586416666666665c0.5012083333333334 0.08816666666666667 0.66125 -0.20700000000000002 0.66125 -0.47245833333333337 0 -0.23958333333333334 0.004791666666666667 -0.905625 0 -1.7480000000000002 -2.797375 0.6066250000000001 -3.37525 -1.3234583333333334 -3.37525 -1.3234583333333334a2.659375 2.659375 0 0 0 -1.1145416666666668 -1.4700833333333334c-0.9123333333333333 -0.6229166666666667 0.06804166666666667 -0.6114166666666667 0.06804166666666667 -0.6114166666666667a2.109291666666667 2.109291666666667 0 0 1 1.5400416666666668 1.0350000000000001 2.1390000000000002 2.1390000000000002 0 0 0 2.9229166666666666 0.8347083333333334c0.04791666666666667 -0.5079166666666667 0.273125 -0.9822916666666667 0.6382500000000001 -1.3387916666666668 -2.231 -0.2549166666666667 -4.577 -1.1164583333333333 -4.577 -4.968a3.8860416666666664 3.8860416666666664 0 0 1 1.0350000000000001 -2.6977083333333334 3.6052500000000003 3.6052500000000003 0 0 1 0.09870833333333333 -2.6584166666666667s0.8452500000000001 -0.27025 2.762875 1.0311666666666668a9.5105 9.5105 0 0 1 5.033166666666666 0c1.9233750000000003 -1.3004583333333333 2.7609583333333334 -1.0311666666666668 2.7609583333333334 -1.0311666666666668 0.370875 0.8414166666666667 0.4063333333333333 1.7920833333333335 0.09966666666666667 2.6584166666666667a3.88125 3.88125 0 0 1 1.0340416666666667 2.6986666666666665c0 3.8620833333333335 -2.349833333333333 4.711166666666667 -4.589458333333333 4.958416666666667a2.383375 2.383375 0 0 1 0.6880833333333334 1.8524583333333335v2.783c0 0.26833333333333337 0.16291666666666668 0.5654166666666667 0.67275 0.4676666666666667a10.050041666666667 10.050041666666667 0 0 0 -3.1835833333333334 -19.586416666666665v0Z" stroke-width="1"></path></svg>