<?xml version="1.0" encoding="utf-8"?>
<!-- Generator: Adobe Illustrator 23.0.3, SVG Export Plug-In . SVG Version: 6.00 Build 0)  -->
<svg version="1.1" id="light_1" xmlns="http://www.w3.org/2000/svg" xmlns:xlink="http://www.w3.org/1999/xlink" x="0px"
  y="0px" viewBox="0 0 28 28" enable-background="new 0 0 28 28" xml:space="preserve" width="20" height="20">
  <ellipse transform="matrix(0.5 -0.866 0.866 0.5 -4.1605 18.92)" fill="none" cx="14.305" cy="13.063" rx="10.806"
    ry="5.717" />
  <g>
    <path d="M14,19c-6.729,0-12-2.196-12-5s5.271-5,12-5s12,2.196,12,5S20.729,19,14,19z M14,10c-6.482,0-11,2.108-11,4s4.518,4,11,4
		s11-2.108,11-4S20.482,10,14,10z" style="stroke: #53C1DE; stroke-width: 1px; stroke-linecap: round;" />
  </g>
  <g>
    <path d="M9.671,25.001c-0.479,0-0.91-0.118-1.289-0.354l0,0C6,23.165,6.812,17.329,10.229,11.363
		c2.51-4.383,5.745-7.621,8.242-8.251c0.833-0.208,1.553-0.128,2.147,0.24c2.381,1.482,1.569,7.318-1.848,13.284
		c-2.51,4.383-5.745,7.621-8.242,8.251C10.228,24.963,9.942,25.001,9.671,25.001z M8.91,23.798c0.354,0.222,0.816,0.26,1.374,0.12
		c2.212-0.558,5.274-3.684,7.618-7.777c3.31-5.778,3.809-10.93,2.188-11.938c-0.354-0.221-0.816-0.261-1.374-0.12
		c-2.212,0.558-5.274,3.684-7.618,7.777C7.788,17.638,7.289,22.789,8.91,23.798L8.91,23.798z"
      style="stroke: #53C1DE; stroke-width: 1px; stroke-linecap: round;" />
  </g>
  <g>
    <path d="M18.329,25.001c-0.271,0-0.557-0.038-0.858-0.113c-2.497-0.63-5.732-3.868-8.242-8.251C5.812,10.671,5,4.835,7.382,3.353
		c0.594-0.368,1.315-0.448,2.147-0.24c2.497,0.63,5.732,3.868,8.242,8.251c3.417,5.966,4.229,11.802,1.848,13.284l0,0
		C19.239,24.883,18.808,25.001,18.329,25.001z M19.354,24.223h0.01H19.354z M8.677,4C8.383,4,8.126,4.067,7.91,4.202
		c-1.621,1.009-1.122,6.16,2.188,11.938c2.344,4.094,5.406,7.22,7.618,7.777c0.558,0.14,1.02,0.102,1.374-0.12l0,0
		c1.621-1.009,1.122-6.16-2.188-11.938c-2.344-4.094-5.406-7.22-7.618-7.777C9.067,4.027,8.864,4,8.677,4z"
      style="stroke: #53C1DE; stroke-width: 1px; stroke-linecap: round;" />
  </g>
  <g>
    <path d="M14,16.5c-1.378,0-2.5-1.121-2.5-2.5s1.122-2.5,2.5-2.5s2.5,1.121,2.5,2.5S15.378,16.5,14,16.5z M14,12.5
		c-0.827,0-1.5,0.673-1.5,1.5s0.673,1.5,1.5,1.5s1.5-0.673,1.5-1.5S14.827,12.5,14,12.5z"
      style="stroke: #53C1DE; stroke-width: 1px; stroke-linecap: round;" />
  </g>
</svg>