<?xml version="1.0" encoding="utf-8"?>
<!-- Generator: Adobe Illustrator 21.0.0, SVG Export Plug-In . SVG Version: 6.00 Build 0)  -->
<svg version="1.1" id="light_1" xmlns="http://www.w3.org/2000/svg" xmlns:xlink="http://www.w3.org/1999/xlink" x="0px" y="0px" viewBox="0 0 24 24" enable-background="new 0 0 24 24" xml:space="preserve" width="20" height="20">
<g>
	<g>
		<g>
			<path fill="#110638" d="M12.177,7.283c-0.075,0-0.151-0.017-0.223-0.053c-0.176-0.088-0.277-0.265-0.277-0.449
				c0-0.075,0.017-0.151,0.053-0.222c0.124-0.247,0.422-0.347,0.67-0.224l0.002,0.001c0.175,0.087,0.276,0.264,0.276,0.447
				c0,0.075-0.017,0.152-0.053,0.224C12.537,7.182,12.36,7.283,12.177,7.283z" style="stroke: #83CD29; stroke-width: 1px; stroke-linecap: round;"/>
		</g>
	</g>
</g>
<g>
	<g>
		<g>
			<path fill="#110638" d="M17.22,22.5H6.781c-0.577,0-1.082-0.276-1.351-0.739l-5.22-8.915c-0.002-0.004-0.005-0.009-0.008-0.014
				C0.07,12.598,0,12.333,0,12.063c0-0.277,0.073-0.547,0.21-0.782l5.219-8.968C5.722,1.812,6.24,1.5,6.781,1.5h10.438
				c0.541,0,1.059,0.312,1.352,0.813l5.22,8.99c0.136,0.228,0.21,0.495,0.21,0.766c0,0.275-0.074,0.542-0.214,0.774l-5.215,8.923
				C18.3,22.226,17.796,22.5,17.22,22.5z M1.08,12.353l5.213,8.904c0.128,0.22,0.383,0.243,0.487,0.243H17.22
				c0.13,0,0.366-0.031,0.488-0.239l5.219-8.929C22.975,12.251,23,12.161,23,12.069c0-0.091-0.025-0.18-0.072-0.258l-5.223-8.995
				C17.596,2.627,17.399,2.5,17.218,2.5H6.781C6.6,2.5,6.403,2.627,6.293,2.817l-5.219,8.968C1.025,11.869,1,11.964,1,12.063
				c0,0.1,0.026,0.197,0.077,0.284C1.078,12.349,1.079,12.351,1.08,12.353z" style="stroke: #83CD29; stroke-width: 1px; stroke-linecap: round;"/>
		</g>
	</g>
</g>
<g>
	<g>
		<g>
			<path fill="#110638" d="M11.823,17.875c-0.04,0-0.081-0.005-0.121-0.015l-0.002,0c-0.227-0.057-0.379-0.26-0.379-0.484
				c0-0.04,0.005-0.081,0.015-0.122c0.066-0.269,0.336-0.435,0.606-0.364c0.227,0.057,0.379,0.26,0.38,0.484
				c0,0.041-0.005,0.081-0.015,0.122C12.25,17.723,12.047,17.875,11.823,17.875z" style="stroke: #83CD29; stroke-width: 1px; stroke-linecap: round;"/>
		</g>
	</g>
</g>
<g>
	<g>
		<g>
			<path fill="#110638" d="M11.999,17.922c-0.147,0-0.294-0.039-0.424-0.112l-4.37-2.498c-0.001,0-0.002-0.001-0.003-0.002
				c-0.262-0.153-0.425-0.434-0.425-0.735V9.583c0-0.302,0.162-0.583,0.424-0.735l4.374-2.5c0.253-0.146,0.591-0.147,0.851,0.001
				l4.367,2.496c0.265,0.153,0.428,0.435,0.428,0.736v4.994c0,0.3-0.162,0.582-0.422,0.733l-4.375,2.5
				C12.299,17.882,12.151,17.922,11.999,17.922z M12.069,16.94L12.069,16.94L12.069,16.94z M7.777,14.487l4.221,2.413l4.222-2.413
				V9.67l-4.222-2.413L7.777,9.67V14.487z M11.929,7.217L11.929,7.217L11.929,7.217z" style="stroke: #83CD29; stroke-width: 1px; stroke-linecap: round;"/>
		</g>
	</g>
</g>
</svg>
