<?xml version="1.0" encoding="utf-8"?>
<!-- Generator: Adobe Illustrator 23.0.3, SVG Export Plug-In . SVG Version: 6.00 Build 0)  -->
<svg version="1.1" id="light_1" xmlns="http://www.w3.org/2000/svg" xmlns:xlink="http://www.w3.org/1999/xlink" x="0px" y="0px" viewBox="0 0 28 28" enable-background="new 0 0 28 28" xml:space="preserve" width="64" height="64">
<path fill="#FF7C66" d="M17.897,18.564c-0.32,0.493-6.899,0.769-10.46,0.541s-3.918-3.795-3.813-5.434s8.437-1.286,11.999-1.059
	S18.887,17.038,17.897,18.564z" style="stroke: currentColor; stroke-width: 1px; stroke-linecap: round;"/>
<g>
	<path d="M10.5,18.5c-0.276,0-0.5-0.224-0.5-0.5v-3.5c0-0.276,0.224-0.5,0.5-0.5h2c0.827,0,1.5,0.617,1.5,1.375
		s-0.673,1.375-1.5,1.375H11V18C11,18.276,10.776,18.5,10.5,18.5z M11,15.75h1.5c0.271,0,0.5-0.172,0.5-0.375S12.771,15,12.5,15H11
		V15.75z" style="stroke: currentColor; stroke-width: 1px; stroke-linecap: round;"/>
</g>
<g>
	<path d="M13.5,18.5c-0.117,0-0.235-0.041-0.33-0.124l-1.995-1.75c-0.208-0.183-0.229-0.498-0.046-0.706
		c0.183-0.207,0.499-0.227,0.706-0.046l1.995,1.75c0.208,0.183,0.229,0.498,0.046,0.706C13.777,18.442,13.639,18.5,13.5,18.5z" style="stroke: currentColor; stroke-width: 1px; stroke-linecap: round;"/>
</g>
<g>
	<g>
		<path d="M17.5,18.5c-0.276,0-0.5-0.224-0.5-0.5v-2.803C17,15.104,16.873,15,16.703,15h-0.905c-0.17,0-0.297,0.104-0.297,0.197V18
			c0,0.276-0.224,0.5-0.5,0.5s-0.5-0.224-0.5-0.5v-2.803c0-0.66,0.582-1.197,1.297-1.197h0.905C17.418,14,18,14.537,18,15.197V18
			C18,18.276,17.776,18.5,17.5,18.5z" style="stroke: currentColor; stroke-width: 1px; stroke-linecap: round;"/>
	</g>
	<g>
		<path d="M17.469,17.188H15c-0.276,0-0.5-0.224-0.5-0.5s0.224-0.5,0.5-0.5h2.469c0.276,0,0.5,0.224,0.5,0.5
			S17.745,17.188,17.469,17.188z" style="stroke: currentColor; stroke-width: 1px; stroke-linecap: round;"/>
	</g>
</g>
<g>
	<path d="M25,18.5h-1.5c-0.276,0-0.5-0.224-0.5-0.5s0.224-0.5,0.5-0.5H25v-0.812l-1,0.062c-0.551,0-1-0.421-1-0.938v-0.875
		C23,14.421,23.449,14,24,14h1.5c0.276,0,0.5,0.224,0.5,0.5S25.776,15,25.5,15H24v0.812l1-0.062c0.551,0,1,0.421,1,0.938v0.875
		C26,18.079,25.551,18.5,25,18.5z" style="stroke: currentColor; stroke-width: 1px; stroke-linecap: round;"/>
</g>
<g>
	<path d="M19,18.5c-0.276,0-0.5-0.224-0.5-0.5v-3.5c0-0.276,0.224-0.5,0.5-0.5s0.5,0.224,0.5,0.5V18
		C19.5,18.276,19.276,18.5,19,18.5z" style="stroke: currentColor; stroke-width: 1px; stroke-linecap: round;"/>
</g>
<g>
	<path d="M22,18.5h-1.5c-0.276,0-0.5-0.224-0.5-0.5v-3.5c0-0.276,0.224-0.5,0.5-0.5s0.5,0.224,0.5,0.5v3h1
		c0.276,0,0.5,0.224,0.5,0.5S22.276,18.5,22,18.5z" style="stroke: currentColor; stroke-width: 1px; stroke-linecap: round;"/>
</g>
<g>
	<g>
		<path d="M7.259,18.5H2.587c-0.133,0-0.26-0.053-0.354-0.146c-0.189-0.188-0.16-0.365-0.097-0.753
			c0.014-0.085,0.727-4.25,3.723-6.64c4.877-3.891,9.946,1.136,9.996,1.188c0.185,0.188,0.193,0.485,0.019,0.683
			c-0.175,0.197-0.471,0.227-0.68,0.064c-0.032-0.024-3.138-2.377-5.601-0.79c-2.487,1.602-1.848,5.772-1.841,5.814
			c0.023,0.145-0.018,0.293-0.113,0.404C7.544,18.436,7.405,18.5,7.259,18.5z M3.178,17.499L6.7,17.5
			c-0.105-1.347-0.09-4.663,2.352-6.235c0.631-0.407,1.284-0.614,1.922-0.688c-1.368-0.262-2.939-0.072-4.491,1.165
			C4.218,13.55,3.382,16.595,3.178,17.499z" style="stroke: currentColor; stroke-width: 1px; stroke-linecap: round;"/>
	</g>
</g>
<g>
	<path d="M8,18.5c-0.068,0-0.138-0.014-0.204-0.044l-0.78-0.35c-0.252-0.112-0.365-0.408-0.251-0.66
		c0.113-0.252,0.408-0.367,0.661-0.252l0.78,0.35c0.252,0.112,0.365,0.408,0.251,0.66C8.373,18.39,8.191,18.5,8,18.5z" style="stroke: currentColor; stroke-width: 1px; stroke-linecap: round;"/>
</g>
<g>
	<path d="M3.16,16.3c-0.069,0-0.139-0.015-0.206-0.045l-0.66-0.3c-0.251-0.114-0.363-0.41-0.249-0.662
		c0.114-0.251,0.41-0.362,0.662-0.248l0.66,0.3c0.251,0.114,0.363,0.41,0.249,0.662C3.532,16.191,3.35,16.3,3.16,16.3z" style="stroke: currentColor; stroke-width: 1px; stroke-linecap: round;"/>
</g>
<g>
	<path d="M8.2,16.14c-0.116,0-0.231-0.04-0.326-0.121l-0.86-0.739c-0.209-0.18-0.233-0.495-0.054-0.705
		c0.181-0.21,0.497-0.231,0.705-0.053l0.86,0.739c0.209,0.18,0.233,0.495,0.054,0.705C8.48,16.081,8.341,16.14,8.2,16.14z" style="stroke: currentColor; stroke-width: 1px; stroke-linecap: round;"/>
</g>
<g>
	<path d="M4.84,13.22c-0.115,0-0.231-0.039-0.325-0.12l-0.84-0.72c-0.21-0.18-0.234-0.495-0.055-0.705
		c0.181-0.209,0.497-0.234,0.705-0.055l0.84,0.72c0.21,0.18,0.234,0.495,0.055,0.705C5.121,13.16,4.98,13.22,4.84,13.22z" style="stroke: currentColor; stroke-width: 1px; stroke-linecap: round;"/>
</g>
<g>
	<path d="M8.851,14.19c-0.164,0-0.325-0.081-0.42-0.229l-0.62-0.96c-0.15-0.232-0.083-0.542,0.148-0.691
		C8.19,12.159,8.5,12.228,8.65,12.459l0.62,0.96c0.15,0.232,0.083,0.542-0.148,0.691C9.038,14.165,8.943,14.19,8.851,14.19z" style="stroke: currentColor; stroke-width: 1px; stroke-linecap: round;"/>
</g>
<g>
	<path d="M6.971,11.3c-0.164,0-0.324-0.08-0.419-0.228l-0.52-0.8C5.88,10.041,5.946,9.731,6.178,9.581
		C6.409,9.43,6.719,9.496,6.869,9.728l0.52,0.8c0.151,0.231,0.085,0.541-0.146,0.691C7.159,11.273,7.064,11.3,6.971,11.3z" style="stroke: currentColor; stroke-width: 1px; stroke-linecap: round;"/>
</g>
<g>
	<path d="M10.21,12.89c-0.209,0-0.404-0.132-0.474-0.341l-0.34-1.01c-0.088-0.262,0.053-0.545,0.314-0.633
		c0.264-0.087,0.546,0.053,0.634,0.314l0.34,1.01c0.088,0.262-0.053,0.545-0.314,0.633C10.316,12.881,10.263,12.89,10.21,12.89z" style="stroke: currentColor; stroke-width: 1px; stroke-linecap: round;"/>
</g>
<g>
	<path d="M9.41,10.5c-0.208,0-0.403-0.131-0.474-0.34l-0.22-0.65C8.628,9.248,8.768,8.965,9.03,8.876
		c0.26-0.085,0.545,0.052,0.634,0.313l0.22,0.65c0.088,0.262-0.052,0.545-0.313,0.634C9.518,10.491,9.463,10.5,9.41,10.5z" style="stroke: currentColor; stroke-width: 1px; stroke-linecap: round;"/>
</g>
<g>
	<path d="M12.11,12.15c-0.276,0-0.5-0.224-0.5-0.5V11.09c0-0.276,0.224-0.5,0.5-0.5s0.5,0.224,0.5,0.5v0.561
		C12.61,11.927,12.386,12.15,12.11,12.15z" style="stroke: currentColor; stroke-width: 1px; stroke-linecap: round;"/>
</g>
<g>
	<path d="M12.12,10.88c-0.276,0-0.5-0.224-0.5-0.5V9.71c0-0.276,0.224-0.5,0.5-0.5s0.5,0.224,0.5,0.5v0.67
		C12.62,10.656,12.396,10.88,12.12,10.88z" style="stroke: currentColor; stroke-width: 1px; stroke-linecap: round;"/>
</g>
</svg>
