<?xml version="1.0" encoding="utf-8"?>
<!-- Generator: Adobe Illustrator 21.0.0, SVG Export Plug-In . SVG Version: 6.00 Build 0)  -->
<svg version="1.1" id="light_1" xmlns="http://www.w3.org/2000/svg" xmlns:xlink="http://www.w3.org/1999/xlink" x="0px" y="0px" viewBox="0 0 24 24" enable-background="new 0 0 24 24" xml:space="preserve" width="64" height="64">
<g>
	<g>
		<g>
			<path fill="#FCC34A" d="M16.209,11.848c0.104,0.002,0.194-0.01,0.291-0.016V8.994c0-0.276-0.224-0.5-0.5-0.5H1.501
				c-0.276,0-0.5,0.224-0.5,0.5v2.848c0,0.002,0.001,0.004,0.001,0.006H16.209z" style="stroke: currentColor; stroke-width: 1px; stroke-linecap: round;"/>
		</g>
	</g>
</g>
<g>
	<g>
		<g>
			<path fill="#110638" d="M13,9.494H4c-0.276,0-0.5-0.224-0.5-0.5V6.146c0-0.276,0.224-0.5,0.5-0.5h9c0.276,0,0.5,0.224,0.5,0.5
				v2.849C13.5,9.271,13.276,9.494,13,9.494z M4.5,8.494h8V6.646h-8V8.494z" style="stroke: currentColor; stroke-width: 1px; stroke-linecap: round;"/>
		</g>
	</g>
</g>
<g>
	<g>
		<g>
			<path fill="#110638" d="M13,12.342h-3c-0.276,0-0.5-0.224-0.5-0.5V3.297c0-0.276,0.224-0.5,0.5-0.5h3c0.276,0,0.5,0.224,0.5,0.5
				v8.545C13.5,12.119,13.276,12.342,13,12.342z M10.5,11.342h2V3.797h-2V11.342z" style="stroke: currentColor; stroke-width: 1px; stroke-linecap: round;"/>
		</g>
	</g>
</g>
<g>
	<g>
		<g>
			<path fill="#110638" d="M10,12.342H7c-0.276,0-0.5-0.224-0.5-0.5V6.146c0-0.276,0.224-0.5,0.5-0.5h3c0.276,0,0.5,0.224,0.5,0.5
				v5.697C10.5,12.119,10.276,12.342,10,12.342z M7.5,11.342h2V6.646h-2V11.342z" style="stroke: currentColor; stroke-width: 1px; stroke-linecap: round;"/>
		</g>
	</g>
</g>
<g>
	<g>
		<g>
			<path fill="#110638" d="M7,12.342H4c-0.276,0-0.5-0.224-0.5-0.5V8.994c0-0.276,0.224-0.5,0.5-0.5h3c0.276,0,0.5,0.224,0.5,0.5
				v2.848C7.5,12.119,7.276,12.342,7,12.342z M4.5,11.342h2V9.494h-2V11.342z" style="stroke: currentColor; stroke-width: 1px; stroke-linecap: round;"/>
		</g>
	</g>
</g>
<g>
	<g>
		<g>
			<path fill="#110638" d="M8.113,20.5c-2.764,0-4.892-0.854-6.324-2.54c-1.374-1.618-2.054-4.107-1.693-6.196
				c0.042-0.24,0.25-0.415,0.493-0.415h15.621c0.427,0.003,0.782-0.061,1.043-0.139c-0.512-1.257-0.211-2.79,0.413-3.728L18,6.982
				c0.153-0.228,0.46-0.29,0.691-0.14l0.503,0.332c0.844,0.645,1.364,1.343,1.594,2.136c0.866-0.073,1.919,0.042,2.514,0.44
				l0.476,0.316c0.209,0.139,0.283,0.412,0.172,0.637l-0.056,0.115c-0.084,0.174-0.207,0.423-0.26,0.517
				c-0.882,1.667-2.529,1.861-3.391,1.875C18.149,17.915,13.855,20.5,8.113,20.5z M1.025,12.349
				c-0.166,1.719,0.423,3.666,1.525,4.964C3.785,18.764,5.656,19.5,8.113,19.5c5.437,0,9.464-2.48,11.339-6.984
				c0.079-0.189,0.295-0.31,0.471-0.308c0.984,0.023,2.182-0.118,2.83-1.347c0.004-0.007,0.01-0.018,0.014-0.025
				c0.019-0.032,0.054-0.1,0.092-0.179l-0.113-0.076c-0.357-0.238-1.396-0.383-2.259-0.224c-0.132,0.024-0.273-0.006-0.384-0.086
				c-0.111-0.08-0.185-0.202-0.203-0.337c-0.101-0.724-0.521-1.36-1.286-1.946L18.555,7.95l-0.059,0.087
				c-0.533,0.8-0.735,2.234-0.13,3.154c0.077,0.117,0.101,0.261,0.067,0.397c-0.035,0.136-0.125,0.251-0.249,0.317
				c-0.258,0.139-0.958,0.476-1.984,0.442H1.025z" style="stroke: currentColor; stroke-width: 1px; stroke-linecap: round;"/>
		</g>
	</g>
</g>
</svg>
