<svg xmlns="http://www.w3.org/2000/svg" fill="none" viewBox="-0.5 -0.5 14 14" height="14" width="14"><g id="track-select-right-tool"><path id="Vector" fill="#d7e0ff" d="M1.6370714285714285 10.446428571428571a0.9285714285714286 0.9285714285714286 0 0 1 -0.9285714285714286 -0.9285714285714286v-6.035714285714286a0.9285714285714286 0.9285714285714286 0 0 1 0.9285714285714286 -0.9285714285714286H7.196428571428572a0.9285714285714286 0.9285714285714286 0 0 1 0.9285714285714286 0.9285714285714286v6.035714285714286a0.9285714285714286 0.9285714285714286 0 0 1 -0.9285714285714286 0.9285714285714286H1.6370714285714285Z" stroke-width="1"></path><path id="Vector 1027" stroke="#4147d5" stroke-linecap="round" stroke-linejoin="round" d="M0.6964285714285714 3.7142857142857144v-0.23214285714285715a0.9285714285714286 0.9285714285714286 0 0 1 0.9285714285714286 -0.9285714285714286H1.8571428571428572" stroke-width="1"></path><path id="Vector 1036" stroke="#4147d5" stroke-linecap="round" stroke-linejoin="round" d="M8.125 3.7142857142857144v-0.23214285714285715a0.9285714285714286 0.9285714285714286 0 0 0 -0.9285714285714286 -0.9285714285714286H6.964285714285714" stroke-width="1"></path><path id="Vector 1070" stroke="#4147d5" stroke-linecap="round" stroke-linejoin="round" d="M0.6964285714285714 6.035714285714286v0.9285714285714286" stroke-width="1"></path><path id="Vector 1072" stroke="#4147d5" stroke-linecap="round" stroke-linejoin="round" d="m4.875 2.553571428571429 -0.9285714285714286 0" stroke-width="1"></path><path id="Vector 1078" stroke="#4147d5" stroke-linecap="round" stroke-linejoin="round" d="M8.125 9.285714285714286v0.23214285714285715a0.9285714285714286 0.9285714285714286 0 0 1 -0.9285714285714286 0.9285714285714286H6.964285714285714" stroke-width="1"></path><path id="Vector 1079" stroke="#4147d5" stroke-linecap="round" stroke-linejoin="round" d="M0.6964285714285714 9.285714285714286v0.23214285714285715a0.9285714285714286 0.9285714285714286 0 0 0 0.9285714285714286 0.9285714285714286H1.8571428571428572" stroke-width="1"></path><path id="Vector 1080" stroke="#4147d5" stroke-linecap="round" stroke-linejoin="round" d="m3.9464285714285716 10.446428571428571 0.9285714285714286 0" stroke-width="1"></path><path id="Vector_2" stroke="#4147d5" stroke-linecap="round" stroke-linejoin="round" d="m5.571428571428571 6.5 6.5 0" stroke-width="1"></path><path id="Vector_3" stroke="#4147d5" stroke-linecap="round" stroke-linejoin="round" d="M10.214285714285715 4.642857142857143c0.6964285714285714 0 1.625 0.9285714285714286 1.8571428571428572 1.8571428571428572 -0.23214285714285715 0.9285714285714286 -1.1607142857142858 1.8571428571428572 -1.8571428571428572 1.8571428571428572" stroke-width="1"></path></g></svg>