
<svg viewBox="0 0 1080 1080" fill="none" xmlns="http://www.w3.org/2000/svg">      <defs>  <filter id="filter" x="-20%" y="-20%" width="40px" height="140%" filterUnits="objectBoundingBox" primitiveUnits="userSpaceOnUse" color-interpolation-filters="linearRGB">    <feMorphology operator="dilate" radius="20 20" in="SourceAlpha" result="morphology"/>    <feFlood flood-color="#ffffff" flood-opacity="1" result="flood"/>    <feComposite in="flood" in2="morphology" operator="in" result="composite"/>    <feMerge result="merge">          <feMergeNode in="composite" result="mergeNode"/>      <feMergeNode in="SourceGraphic" result="mergeNode1"/>      </feMerge>  </filter></defs>      <g id="notion-avatar" filter="url(#filter)">        <g id="notion-avatar-face" fill="#ffffff" transform="scale(-1,1) translate(-1080, 0)">      <!--?xml version="1.0" encoding="UTF-8"?-->    <title>Face/ 8</title>    <g id="Face/-8" stroke="none" stroke-width="1" fill-rule="evenodd" stroke-linecap="round" stroke-linejoin="round">        <path d="M532,379 C664.54834,379 772,486.45166 772,619 C772,751.54834 724.54834,899 592,899 C492.560218,899 373.476049,816.010833 320.189513,718.584987 C317.498129,718.859681 314.765451,719 312,719 C267.81722,719 232,683.18278 232,639 C232,599.134956 261.158843,566.080325 299.312086,560.00055 C325.599297,455.979213 419.809919,379 532,379 Z M295.858895,624.545187 L304.141105,655.454813" id="Path" stroke="#000000" stroke-width="24"/>    </g>    </g><g id="notion-avatar-nose" transform="scale(-1,1) translate(-1080, 0)">      <!--?xml version="1.0" encoding="UTF-8"?-->    <title>Nose/ 1</title>    <g id="Nose/-1" stroke="none" stroke-width="1" fill="none" fill-rule="evenodd" stroke-linecap="round" stroke-linejoin="round">        <path d="M633.532552,569.006852 C651.291821,622.395473 661.086671,652.555363 662.917104,659.486521 C664.747537,666.41768 663.749048,673.591123 659.921638,681.006852" id="Line" stroke="#000000" stroke-width="16" transform="translate(648.668966, 625.006852) rotate(-3.225647) translate(-648.668966, -625.006852) "/>    </g>    </g><g id="notion-avatar-mouth" transform="scale(-1,1) translate(-1080, 0)">      <g id="Mouth/ 13"><g id="Group"><path id="Path" d="M528 765C528 765 599.931 769.393 623.066 764.87C646.202 760.346 687 744 687 744" stroke="black" stroke-width="16" stroke-linecap="round" stroke-linejoin="round"/><path id="Path_2" d="M668 756C668 756 668 785.043 638.943 793.34C609.886 801.638 555 768.447 555 768.447" stroke="black" stroke-width="16" stroke-linecap="round" stroke-linejoin="round"/><path id="Path_3" d="M505.348 782.386C505.348 782.386 499.053 772.522 503.446 759.4C507.839 746.278 519.439 740.299 519.439 740.299" stroke="black" stroke-width="6" stroke-linecap="round" stroke-linejoin="round"/><path id="Path_4" d="M711.499 747.668C711.499 747.668 714.478 743.128 712.342 737.053C710.205 730.977 704.647 728.182 704.647 728.182" stroke="black" stroke-width="6" stroke-linecap="round" stroke-linejoin="round"/></g></g>    </g><g id="notion-avatar-eyes" transform="scale(-1,1) translate(-1080, 0)">      <!--?xml version="1.0" encoding="UTF-8"?-->    <title>Eyes/ 9</title>    <g id="Eyes/-9" stroke="none" stroke-width="1" fill="none" fill-rule="evenodd">        <path d="M570,507 C575.854822,507 581.122051,511.025253 584.779642,517.440484 L578,531 L589.369946,531.000208 C589.781247,533.557105 590,536.237678 590,539 C590,556.673112 581.045695,571 570,571 C558.954305,571 550,556.673112 550,539 C550,521.326888 558.954305,507 570,507 Z M708,507 C713.854822,507 719.122051,511.025253 722.779642,517.440484 L716,531 L727.369946,531.000208 C727.781247,533.557105 728,536.237678 728,539 C728,556.673112 719.045695,571 708,571 C696.954305,571 688,556.673112 688,539 C688,521.326888 696.954305,507 708,507 Z" id="Combined-Shape" fill="#000000"/>    </g>    </g><g id="notion-avatar-eyebrows" transform="scale(-1,1) translate(-1080, 0)">      <!--?xml version="1.0" encoding="UTF-8"?-->    <title>Eyebrows/ 10</title>    <g id="Eyebrows/-10" stroke="none" stroke-width="1" fill="none" fill-rule="evenodd" stroke-linecap="round" stroke-linejoin="round">        <path d="M757,487.2 C757,494.4 735.666667,494.4 717,494.4 C698.333333,494.4 661,498 661,494.4 C661,490.8 694.986112,480 717,480 L720.27013,480.0009 C740.767534,480.018 757,480.36 757,487.2 Z M561,480 C583.013888,480 617,490.8 617,494.4 C617,498 579.666667,494.4 561,494.4 C542.333333,494.4 521,494.4 521,487.2 C521,480.36 537.232466,480.018 557.72987,480.0009 Z" id="Combined-Shape" stroke="#000000" stroke-width="16" fill="#000000"/>    </g>    </g><g id="notion-avatar-glasses" transform="scale(-1,1) translate(-1080, 0)">      <!--?xml version="1.0" encoding="UTF-8"?-->    <title>Glasses/ 0</title>    <g id="Glasses/-0" stroke="none" stroke-width="1" fill="none" fill-rule="evenodd"/>    </g><g id="notion-avatar-hair" transform="scale(-1,1) translate(-1080, 0)">      <!--?xml version="1.0" encoding="UTF-8"?-->    <title>Hairstyle/ 0</title>    <g id="Hairstyle/-0" stroke="none" stroke-width="1" fill="none" fill-rule="evenodd"/>    </g><g id="notion-avatar-accessories" transform="scale(-1,1) translate(-1080, 0)">      <g id="Accessories/ 12"><g id="Group"><path id="Path" d="M848.364 445.584C849.787 445.071 851.352 445.115 852.744 445.707L850.397 451.229C852.744 445.707 852.745 445.707 852.747 445.708L852.75 445.709L852.759 445.713L852.787 445.725L852.876 445.763C852.95 445.796 853.054 445.841 853.185 445.899C853.448 446.015 853.819 446.182 854.28 446.396C855.199 446.822 856.483 447.439 857.966 448.21C860.889 449.731 864.778 451.952 868.204 454.609C871.355 457.053 875.296 460.743 876.573 465.471C877.29 468.125 877.144 471.033 875.712 473.814C874.356 476.446 872.1 478.476 869.469 480.075C863.829 483.501 856.637 484.18 849.944 483.852C843.082 483.515 835.794 482.064 829.258 480.353C822.687 478.634 816.679 476.6 812.325 475.003C810.143 474.202 808.364 473.506 807.122 473.007C806.501 472.758 806.014 472.557 805.677 472.417C805.509 472.347 805.378 472.292 805.287 472.253L805.18 472.208L805.15 472.195L805.14 472.191L805.137 472.19C805.136 472.189 805.135 472.189 807.503 466.676L805.135 472.189C802.871 471.216 801.432 468.958 801.506 466.495C801.58 464.033 803.152 461.866 805.47 461.031L848.364 445.584Z" fill="white" stroke="black" stroke-width="12" stroke-linecap="round" stroke-linejoin="round"/><path id="Path_2" d="M861.983 450.136C864.506 451.321 865.881 454.088 865.301 456.815C864.721 459.542 862.34 461.51 859.552 461.566L859.551 461.566L859.536 461.566L859.47 461.568C859.409 461.569 859.315 461.571 859.191 461.575C858.941 461.581 858.568 461.592 858.084 461.609C857.116 461.642 855.708 461.697 853.968 461.787C850.482 461.968 845.689 462.285 840.45 462.832C829.639 463.959 818.065 465.961 811.673 469.176C782.246 483.973 750.71 499.226 720.703 510.561C690.825 521.848 661.816 529.509 637.597 528.591C594.287 526.948 545.131 507.141 507.283 488.165C488.255 478.625 471.883 469.19 460.266 462.139C454.454 458.612 449.826 455.678 446.644 453.62C445.052 452.591 443.822 451.781 442.985 451.225C442.566 450.947 442.246 450.733 442.028 450.587L441.908 450.506L441.779 450.419L441.713 450.374L441.695 450.362L441.689 450.358C441.688 450.357 441.686 450.356 445.06 445.395L441.686 450.356C439.683 448.994 438.696 446.561 439.183 444.188C439.67 441.815 441.536 439.968 443.914 439.505L721.566 385.467C722.815 385.223 724.11 385.384 725.262 385.925L861.983 450.136Z" fill="white" stroke="black" stroke-width="12" stroke-linecap="round" stroke-linejoin="round"/><path id="Path_3" d="M742.712 401.356L748.621 400.312C749.13 403.194 747.486 406.022 744.73 407.006L742.712 401.356ZM742.712 401.356C748.621 400.312 748.62 400.309 748.619 400.304L748.617 400.291L748.61 400.25C748.604 400.217 748.595 400.17 748.584 400.111C748.562 399.993 748.531 399.825 748.489 399.607C748.405 399.173 748.279 398.542 748.108 397.73C747.765 396.106 747.239 393.752 746.495 390.777C745.007 384.828 742.644 376.386 739.126 366.312C732.097 346.184 720.417 319.43 701.806 293.031C664.434 240.023 599.167 188.634 488.669 195.067C378.312 201.491 322.938 256.206 295.494 309.669C281.857 336.234 275.177 362.341 271.899 381.774C270.257 391.502 269.462 399.591 269.078 405.274C268.886 408.116 268.796 410.36 268.754 411.909C268.734 412.683 268.725 413.284 268.721 413.7C268.72 413.908 268.719 414.07 268.719 414.184C268.719 414.241 268.719 414.286 268.72 414.319L268.72 414.359L268.72 414.372C268.72 414.377 268.72 414.381 274.72 414.327M742.712 401.356C744.73 407.006 744.729 407.007 744.728 407.007L744.725 407.008L744.714 407.012L744.672 407.027L744.508 407.085C744.364 407.136 744.151 407.212 743.872 407.311C743.314 407.508 742.491 407.798 741.428 408.169C739.303 408.913 736.215 409.984 732.358 411.298C724.646 413.926 713.849 417.531 701.507 421.436C676.883 429.227 645.881 438.29 620.931 443.146C596.034 447.992 557.102 452.549 524.587 455.885C508.288 457.557 493.533 458.929 482.852 459.883C477.511 460.36 473.188 460.733 470.198 460.986C468.703 461.113 467.542 461.21 466.753 461.275C466.359 461.308 466.058 461.333 465.855 461.349L465.625 461.368L465.566 461.373L465.551 461.374L465.548 461.375C465.547 461.375 465.546 461.375 465.061 455.394M274.72 414.327C270.992 419.028 270.993 419.029 270.994 419.03L270.998 419.033L271.006 419.039L271.031 419.059L271.116 419.126C271.189 419.182 271.291 419.262 271.423 419.364C271.687 419.567 272.069 419.858 272.564 420.228C273.553 420.966 274.994 422.017 276.837 423.298C280.521 425.858 285.828 429.346 292.372 433.1C305.414 440.58 323.591 449.24 343.776 453.595C363.727 457.9 394.227 459.822 419.367 460.692C432.015 461.13 443.442 461.306 451.706 461.372C455.839 461.405 459.184 461.41 461.499 461.408C462.656 461.406 463.556 461.403 464.168 461.4C464.475 461.398 464.709 461.397 464.867 461.396L465.048 461.395L465.095 461.394L465.107 461.394L465.11 461.394C465.111 461.394 465.112 461.394 465.061 455.394M274.72 414.327L270.992 419.028C269.571 417.902 268.736 416.194 268.72 414.381L274.72 414.327ZM465.061 455.394L465.546 461.375C465.402 461.386 465.257 461.393 465.112 461.394L465.061 455.394Z" fill="white" stroke="black" stroke-width="12" stroke-linecap="round" stroke-linejoin="round"/><path id="Oval" d="M467.691 222.831C459.814 223.798 452.181 223.033 446.139 220.727C440.381 218.529 434.472 214.203 433.606 207.15C432.739 200.096 437.427 194.469 442.482 190.944C447.787 187.244 455.008 184.655 462.885 183.688C470.762 182.721 478.395 183.486 484.437 185.792C490.196 187.99 496.105 192.316 496.971 199.369C497.837 206.423 493.15 212.05 488.094 215.575C482.789 219.275 475.568 221.864 467.691 222.831Z" fill="white" stroke="black" stroke-width="12" stroke-linecap="round" stroke-linejoin="round"/></g></g>    </g><g id="notion-avatar-details" transform="scale(-1,1) translate(-1080, 0)">      <g id="Details/ 11"><g id="Group"><path id="Path" d="M507 720C507 720 494.598 736.764 490.475 756.711C486.352 776.658 490.594 790.012 490.594 790.012" stroke="black" stroke-width="8" stroke-linecap="round" stroke-linejoin="round"/><path id="Path_2" d="M474.455 780.077C474.455 780.077 472.756 789.239 475.816 797.908C478.876 806.577 484.27 810.911 484.27 810.911" stroke="black" stroke-width="6" stroke-linecap="round" stroke-linejoin="round"/></g></g>    </g><g id="notion-avatar-beard" transform="scale(-1,1) translate(-1080, 0)">      <g id="Beard/ 16"><g id="Shape"><path fill-rule="evenodd" clip-rule="evenodd" d="M679 848L692 872L690.233 873.596C661.493 899.412 638.416 913.214 621 915C603.584 916.786 577.305 911.7 542.163 899.741L540 899L547 872C571 880 595 882 619 878C642.7 874.05 662.499 864.249 678.398 848.597L679 848ZM645 789C639 793 634.916 796.484 632.747 799.452L632.158 800.248C629.316 804.036 627.875 805 623 805C618.464 805 617.195 804.165 614.325 800.997L612.947 799.452C610.316 796.484 606.333 793 601 789C607.114 790.333 614.447 791 623 791C631.553 791 638.886 790.333 645 789Z" fill="black"/><path d="M679 848L684.276 845.142C683.376 843.481 681.745 842.34 679.876 842.064C678.006 841.788 676.116 842.41 674.774 843.741L679 848ZM692 872L696.022 876.453C698.076 874.597 698.594 871.577 697.276 869.142L692 872ZM690.233 873.596L694.243 878.059C694.247 878.056 694.251 878.052 694.255 878.048L690.233 873.596ZM542.163 899.741L540.218 905.417L540.23 905.421L542.163 899.741ZM540 899L534.192 897.494C533.405 900.53 535.089 903.66 538.056 904.676L540 899ZM547 872L548.897 866.308C547.32 865.782 545.596 865.934 544.136 866.728C542.675 867.521 541.609 868.885 541.192 870.494L547 872ZM619 878L618.014 872.082L619 878ZM678.398 848.597L682.607 852.873C682.613 852.867 682.619 852.862 682.624 852.856L678.398 848.597ZM645 789L648.328 793.992C650.728 792.392 651.65 789.311 650.523 786.656C649.396 784.001 646.54 782.523 643.722 783.138L645 789ZM632.747 799.452L637.571 803.019C637.578 803.01 637.584 803.001 637.591 802.992L632.747 799.452ZM632.158 800.248L636.958 803.848C636.966 803.837 636.975 803.826 636.983 803.815L632.158 800.248ZM614.325 800.997L609.847 804.99C609.857 805.002 609.867 805.014 609.878 805.025L614.325 800.997ZM612.947 799.452L608.457 803.432C608.461 803.436 608.465 803.44 608.468 803.445L612.947 799.452ZM601 789L602.278 783.138C599.521 782.537 596.718 783.938 595.544 786.504C594.37 789.07 595.143 792.107 597.4 793.8L601 789ZM673.724 850.858L686.724 874.858L697.276 869.142L684.276 845.142L673.724 850.858ZM687.978 867.547L686.212 869.143L694.255 878.048L696.022 876.453L687.978 867.547ZM686.224 869.132C672.028 881.884 659.389 891.522 648.291 898.16C637.14 904.828 627.882 908.263 620.388 909.031L621.612 920.969C631.534 919.951 642.522 915.592 654.45 908.459C666.429 901.295 679.699 891.124 694.243 878.059L686.224 869.132ZM620.388 909.031C604.354 910.676 579.135 905.985 544.096 894.061L540.23 905.421C575.475 917.415 602.814 922.897 621.612 920.969L620.388 909.031ZM544.107 894.065L541.944 893.324L538.056 904.676L540.218 905.417L544.107 894.065ZM545.808 900.506L552.808 873.506L541.192 870.494L534.192 897.494L545.808 900.506ZM545.103 877.692C569.993 885.989 594.982 888.086 619.986 883.918L618.014 872.082C595.018 875.914 572.007 874.011 548.897 866.308L545.103 877.692ZM619.986 883.918C644.805 879.782 665.76 869.459 682.607 852.873L674.189 844.321C659.239 859.04 640.595 868.318 618.014 872.082L619.986 883.918ZM682.624 852.856L683.226 852.259L674.774 843.741L674.172 844.338L682.624 852.856ZM641.672 784.008C635.538 788.097 630.719 792.058 627.902 795.911L637.591 802.992C639.112 800.91 642.462 797.903 648.328 793.992L641.672 784.008ZM627.922 795.885L627.334 796.68L636.983 803.815L637.571 803.019L627.922 795.885ZM627.358 796.647C625.965 798.505 625.563 798.726 625.493 798.763C625.482 798.77 625.459 798.781 625.408 798.798C625.353 798.816 625.247 798.847 625.066 798.878C624.676 798.945 624.052 799 623 799V811C625.71 811 628.521 810.765 631.19 809.325C633.77 807.934 635.51 805.779 636.958 803.848L627.358 796.647ZM623 799C622.022 799 621.442 798.953 621.079 798.895C620.76 798.844 620.669 798.794 620.662 798.791C620.57 798.746 620.215 798.562 618.772 796.969L609.878 805.025C611.305 806.6 613.019 808.418 615.413 809.582C617.903 810.794 620.467 811 623 811V799ZM618.803 797.004L617.425 795.458L608.468 803.445L609.847 804.99L618.803 797.004ZM617.436 795.471C614.417 792.066 610.07 788.303 604.6 784.2L597.4 793.8C602.596 797.697 606.214 800.902 608.457 803.432L617.436 795.471ZM599.722 794.862C606.376 796.314 614.162 797 623 797V785C614.732 785 607.851 784.353 602.278 783.138L599.722 794.862ZM623 797C631.838 797 639.624 796.314 646.278 794.862L643.722 783.138C638.149 784.353 631.268 785 623 785V797Z" fill="black"/></g></g>    </g>      </g>      </svg>
