<svg id="eEcbktQPNGj1" xmlns="http://www.w3.org/2000/svg" xmlns:xlink="http://www.w3.org/1999/xlink"
  viewBox="0 0 1024 1024" shape-rendering="geometricPrecision" text-rendering="geometricPrecision"
  project-id="8ddcc7c3430e48e6a90e14cc60d7d1db" export-id="b676010804eb4489a3df3a57934ca90c" cached="false">
  <g>
    <path d="M0,0C337.92,0,675.84,0,1024,0c0,337.92,0,675.84,0,1024-337.92,0-675.84,0-1024,0C0,686.08,0,348.16,0,0Z"
      fill="none" />
  </g>
  <g>
    <path
      d="M0,0c1.168.268,1.168.268,2.36.542C34.503,8.077,62.229,23.518,80,52c5.266,8.901,10.063,18.054,13,28c.285.945.285.945.576,1.908c6.17,20.74,9.53,42.5,9.627,64.139.006,1.014.012,2.028.017,3.073.01,2.131.016,4.263.02,6.394.01,3.214.041,6.428.072,9.642.082,15.945-.529,30.851-9.124,44.782C92,212,92,212,88.605,212.383c-3.708,1.212-3.708,1.212-4.814,3.976-1.032,3.17-1.879,6.339-2.666,9.579-.294,1.11-.588,2.221-.891,3.365-.543,2.058-1.074,4.119-1.589,6.185-.477,1.857-1.039,3.693-1.645,5.512.736-.482,1.472-.964,2.23-1.461.976-.632,1.952-1.263,2.958-1.914.962-.626,1.925-1.253,2.917-1.898C90.757,232.355,95.464,230.999,102,232c8.231,2.836,13.144,8.824,17.25,16.266c7.255,15.257,6.115,32.089.75,47.734-5.197,14.16-12.386,26.188-23,37-.699.723-1.397,1.446-2.117,2.191C86.866,342.929,77.182,347.621,66,348c-.103,1.217-.206,2.434-.312,3.688C64.373,363.226,60.816,374.095,57,385c.947.145.947.145,1.914.293C79.74,390.065,100.864,401.437,118,414c.953.682,1.905,1.364,2.887,2.066c12.209,8.922,23.205,18.847,33.925,29.496.872.863,1.743,1.725,2.641,2.613C163.391,454.142,168.76,460.417,174,467c1.048,1.278,2.099,2.554,3.152,3.828C191.541,488.425,203.905,507.282,211,529c.4,1.174.4,1.174.809,2.371C215.747,545.305,213.29,559.318,207,572c-3.816,6.613-9.531,11.749-15,17c4.049,3.457,8.33,6.014,12.938,8.625c8.064,4.67,15.631,9.759,23.062,15.375.74.558,1.48,1.116,2.242,1.691c2.406,1.823,4.803,3.657,7.196,5.497c1.118.855,1.118.855,2.259,1.727c22,17.106,29.823,43.307,38.553,68.773.298.867.597,1.735.904,2.63c3.577,10.443,6.831,20.916,9.716,31.571c1.569,5.775,3.386,11.47,5.192,17.173c2.705,8.659,5.123,17.29,7.079,26.145.851,3.757,1.833,7.455,2.859,11.168c8.386,31.382,20.326,79.577,3.332,109.664-1.88,2.768-3.728,4.85-6.332,6.961-.66,0-1.32,0-2,0-.027-1.458-.046-2.917-.062-4.375-.012-.812-.024-1.624-.036-2.461C299,887,299,887,300,885c1.854-9.792,2.555-19.607,2.625-29.562.005-.732.01-1.464.016-2.218.027-36.345-9.861-74.476-21.227-108.837-1.542-4.691-2.848-9.438-4.164-14.195-2.539-9.092-5.445-18.051-8.438-27-.216-.648-.432-1.296-.655-1.964-3.352-10.021-7.005-19.881-10.845-29.724-.48-1.234-.48-1.234-.97-2.492-.78-2.003-1.561-4.006-2.342-6.008c1.018,5.035,2.209,9.879,3.953,14.712C262.801,691.155,265.825,705.091,269,719c.237,1.033.237,1.033.478,2.086C277.131,754.523,284.543,788.127,290,822c.196,1.209.392,2.418.594,3.664c2.163,13.665,3.762,27.174,3.844,41.024.01,1.079.02,2.159.03,3.271-.117,10.615-2.056,21.018-9.468,29.041-9.67,7.723-22.09,10.361-34.062,12.125-.98.156-1.959.312-2.967.473-15.564,2.397-31.238,3.728-46.959,4.492-.834.041-1.668.083-2.528.126-22.44,1.096-44.895,1.195-67.357,1.327-8.817.053-17.634.119-26.452.188-2.986.022-5.971.039-8.958.055-11.298.073-22.582.313-33.875.651-19.851.59-39.687.712-59.545.697-3.762-.002-7.524,0-11.285.001-8.964.003-17.929.001-26.893-.005-7.993-.004-15.987-.005-23.98,0-51.429.031-102.844-.245-154.267-.956-9.701-.134-19.402-.253-29.104-.34-19.963-.189-39.815-1.591-59.706-3.209-1.299-.105-2.598-.21-3.936-.318-64.011-5.261-64.011-5.261-75.626-17.682-7.437-8.777-5.239-24.059-4.5-34.625c1.063-9.116,2.714-18.14,4.333-27.17c1.039-5.969,1.908-11.961,2.792-17.955c1.091-7.243,2.322-14.354,4.102-21.465c1.063-4.691,1.846-9.418,2.648-14.16c4.528-26.601,9.808-53.265,17.125-79.25.585-2.145,1.168-4.291,1.75-6.438.416-1.52.833-3.041,1.25-4.562-.99,0-1.98,0-3,0-.082.949-.165,1.898-.25,2.875-.447,3.173-1.364,5.846-2.605,8.797-11.421,27.993-17.412,59.036-23.77,88.516-.235,1.089-.471,2.178-.713,3.301-.948,4.536-1.77,9.013-2.248,13.624C-386,812,-386,812,-387,814c-.201,1.496-.363,2.997-.5,4.5-.389,4.278-.389,4.278-1.5,6.5-.265,1.619-.486,3.246-.684,4.875-.123.986-.246,1.972-.373,2.988-.25,2.06-.5,4.12-.75,6.18-.583,4.67-1.216,9.276-2.201,13.879-1.506,7.183-2.065,14.499-2.76,21.797-.601,5.718-1.116,10.386-4.232,15.281-3-1-3-1-3.932-2.737-1.824-5.64-2.61-10.717-2.568-16.638.002-.908.004-1.817.006-2.752.344-16.107,2.557-33.478,6.535-49.089.686-2.706,1.26-5.236,1.6-7.991.097-.737.195-1.474.296-2.233.103-.783.207-1.566.313-2.372c1.658-11.714,4.303-23.174,6.956-34.696.78-3.43,1.531-6.865,2.271-10.304C-377.295,709.122,-365.202,657.402,-320,625c1.031-.766,2.062-1.531,3.125-2.32c10.213-7.532,20.999-14.155,31.875-20.68.698-.419,1.395-.839,2.114-1.271C-278.248,598,-278.248,598,-276,598c0-.66,0-1.32,0-2-.681-.165-1.361-.33-2.062-.5-7.456-3.807-11.037-10.982-13.938-18.5-.33-.66-.66-1.32-1-2-1.772-19.618,5.304-37.307,13-55c.47-1.086.47-1.086.949-2.194C-268.71,494.184,-255.078,472.302,-238,453c.737-.86,1.475-1.72,2.234-2.605c18.685-21.447,42.005-35.884,67.766-47.395-1.572-5.098-3.666-9.845-5.875-14.688C-182,370.253,-182,370.253,-182,365c-.944.058-1.887.116-2.859.176-14.864.522-24.852-4.39-36.141-14.176-14.023-13.314-23.571-31.311-24.184-50.75-.276-14.676-.046-29.04,10.746-40.25c4.563-4.383,8.379-5.486,14.622-5.402c5.034.719,9.365,3.033,13.816,5.402-1.766-5.455-3.852-10.751-5.977-16.074C-213,241,-213,241,-213,238c-1.217.124-2.434.248-3.688.375-2.582.014-3.87-.044-5.957-1.605-2.278-2.66-3.355-4.223-3.355-7.77-.608.093-1.217.186-1.844.281-10.76.886-19.952-4.202-28.226-10.687-5.499-5.187-9.111-10.606-11.93-17.594-.364-.794-.727-1.588-1.102-2.406-2.612-7.543-1.515-16.118,1.778-23.258c2.357-4.159,5.168-7.756,8.324-11.336.574-.668,1.147-1.335,1.738-2.023c5.84-6.328,12.982-10.518,20.262-14.977c3.141-1.607,3.141-1.607,3.492-3.996.056-.806.111-1.611.168-2.442.072-.895.143-1.791.217-2.714.061-.94.122-1.88.185-2.848c2.071-28.91,12.551-59.986,31.938-82c.741-.847,1.482-1.694,2.246-2.566C-186.843,37.688,-171.255,29.154,-156,21c.831-.448,1.661-.896,2.517-1.358C-113.47,-1.883,-113.47,-1.883,-93,-8c.973-.315,1.946-.629,2.949-.953C-61.339,-17.041,-28.068,-6.474,0,0Z"
      transform="translate(576 105)" fill="#f1f1f1" />
  </g>
  <g>
    <path
      d="M0,0c1.168.268,1.168.268,2.36.542C34.503,8.077,62.229,23.518,80,52c5.266,8.901,10.063,18.054,13,28c.285.945.285.945.576,1.908c6.17,20.74,9.53,42.5,9.627,64.139.006,1.014.012,2.028.017,3.073.01,2.131.016,4.263.02,6.394.01,3.214.041,6.428.072,9.642.082,15.945-.529,30.851-9.124,44.782C92,212,92,212,88.605,212.383c-3.708,1.212-3.708,1.212-4.814,3.976-1.032,3.17-1.879,6.339-2.666,9.579-.294,1.11-.588,2.221-.891,3.365-.543,2.058-1.074,4.119-1.589,6.185-.477,1.857-1.039,3.693-1.645,5.512.736-.482,1.472-.964,2.23-1.461.976-.632,1.952-1.263,2.958-1.914.962-.626,1.925-1.253,2.917-1.898C90.757,232.355,95.464,230.999,102,232c8.231,2.836,13.144,8.824,17.25,16.266c7.255,15.257,6.115,32.089.75,47.734-5.197,14.16-12.386,26.188-23,37-.699.723-1.397,1.446-2.117,2.191C86.866,342.929,77.182,347.621,66,348c-.103,1.217-.206,2.434-.312,3.688C64.373,363.226,60.816,374.095,57,385c.947.145.947.145,1.914.293C79.74,390.065,100.864,401.437,118,414c.953.682,1.905,1.364,2.887,2.066c12.209,8.922,23.205,18.847,33.925,29.496.872.863,1.743,1.725,2.641,2.613C163.391,454.142,168.76,460.417,174,467c1.048,1.278,2.099,2.554,3.152,3.828C191.541,488.425,203.905,507.282,211,529c.4,1.174.4,1.174.809,2.371C215.747,545.305,213.29,559.318,207,572c-3.816,6.613-9.531,11.749-15,17c4.049,3.457,8.33,6.014,12.938,8.625c8.064,4.67,15.631,9.759,23.062,15.375.74.558,1.48,1.116,2.242,1.691c2.406,1.823,4.803,3.657,7.196,5.497c1.118.855,1.118.855,2.259,1.727c22,17.106,29.823,43.307,38.553,68.773.298.867.597,1.735.904,2.63c3.577,10.443,6.831,20.916,9.716,31.571c1.569,5.775,3.386,11.47,5.192,17.173c2.705,8.659,5.123,17.29,7.079,26.145.851,3.757,1.833,7.455,2.859,11.168c8.386,31.382,20.326,79.577,3.332,109.664-1.88,2.768-3.728,4.85-6.332,6.961-.66,0-1.32,0-2,0-.027-1.458-.046-2.917-.062-4.375-.012-.812-.024-1.624-.036-2.461C299,887,299,887,300,885c1.854-9.792,2.555-19.607,2.625-29.562.005-.732.01-1.464.016-2.218.027-36.345-9.861-74.476-21.227-108.837-1.542-4.691-2.848-9.438-4.164-14.195-2.539-9.092-5.445-18.051-8.438-27-.216-.648-.432-1.296-.655-1.964-2.27-6.786-4.551-13.559-7.157-20.224-.364-.93-.727-1.861-1.102-2.82-1.27-3.23-2.551-6.455-3.836-9.68-.644-1.634-.644-1.634-1.302-3.301-2.345-5.885-4.824-11.585-7.76-17.199-4.008,3.651-6.038,8.365-8.5,13.125-.53,1.023-1.059,2.047-1.605,3.101-8.301,16.246-15.343,32.986-21.833,50.024-.448,1.177-.897,2.354-1.359,3.567-2.496,6.659-4.699,13.349-6.742,20.159-1.134,3.567-2.515,6.984-3.943,10.441-2.029,5.148-3.654,10.437-5.33,15.708-.391,1.221-.781,2.442-1.183,3.701-5.027,15.834-9.647,31.787-13.996,47.821-1.405,5.144-1.405,5.144-2.509,7.353-.1,1.492-.138,2.988-.145,4.484-.007.933-.013,1.866-.02,2.827-.001,1.018-.002,2.035-.003,3.084-.003,1.057-.007,2.114-.01,3.203-.005,2.254-.007,4.508-.007,6.762-.002,3.373-.02,6.745-.04,10.119-.03,12.135.413,24.048,1.77,36.109c1.76,15.839,1.76,15.839-1.545,21.412-1.867-.18-1.867-.18-4-1-3.86-6.887-4.442-15.474-5.102-23.203-.084-.992-.169-1.983-.256-3.005-.897-11.567-.943-23.13-.903-34.727.011-3.693,0-7.387-.012-11.081-.008-14.111.586-27.972,2.273-41.984.089-.763.179-1.526.271-2.313.536-4.568,1.119-9.128,1.729-13.687.165-1.294.33-2.588.5-3.922.165-1.243.33-2.485.5-3.766.144-1.096.289-2.193.438-3.324.542-2.882,1.372-5.315,2.562-7.988.66,0,1.32,0,2,0c.33,6.6.66,13.2,1,20c.469-1.382.938-2.764,1.421-4.188c1.749-5.151,3.499-10.302,5.25-15.453.756-2.225,1.512-4.45,2.267-6.675c1.088-3.208,2.179-6.415,3.269-9.622.335-.986.669-1.973,1.014-2.99c1.836-5.394,3.734-10.753,5.779-16.072.459-1.195.918-2.389,1.391-3.62c8.052-20.714,16.425-41.077,26.297-61.005.439-.889.879-1.778,1.332-2.694c2.709-5.391,5.66-10.507,8.952-15.565c1.382-2.218,1.382-2.218.028-5.116-1.878-1.711-3.742-3.267-5.75-4.812-.612-.475-1.224-.949-1.854-1.438-13.725-10.458-28.281-19.793-43.571-27.787-1.693-.893-3.356-1.842-5.016-2.795-3.321-1.381-4.452-1.354-7.809-.168-2.333,1.098-4.598,2.234-6.875,3.438-16.737,8.574-34.099,15.518-51.828,21.744-2.027.722-4.038,1.472-6.047,2.24-6.05,2.283-12.183,4.333-18.312,6.39-.656.22-1.311.44-1.986.667C74.904,640.173,60.653,644.658,46,647c.346,6.691.698,13.381,1.054,20.072.131,2.461.262,4.922.392,7.383.756,14.254,1.587,28.494,2.644,42.729c1.815,24.595,3.302,49.082,3.348,73.754.008,1.63.008,1.63.018,3.293.107,28.769.107,28.769-6.018,36.519-2.673,2.467-3.63,3.14-7.188,3.625-3.482-.402-5.349-1.309-7.93-3.687-4.726-6.042-5.397-15.016-5.531-22.403-.026-1.136-.052-2.273-.08-3.444-.027-1.247-.055-2.494-.084-3.779-.744-28.082-2.756-56.148-5.25-84.124C19.503,695.914,18.828,675.106,19,654c-1.155.237-2.31.474-3.501.719-4.295.881-8.591,1.763-12.887,2.644-1.857.381-3.715.762-5.572,1.144-2.674.548-5.347,1.097-8.02,1.645-.828.17-1.655.34-2.507.515-1.526.313-3.053.624-4.579.933-1.525.315-3.044.66-4.56,1.015-3.136.508-6.202.408-9.374.385.131,13.521.266,27.043.404,40.564.022,2.207.045,4.415.067,6.622.248,24.55.508,49.096,1.025,73.642.555,26.622.645,53.243.685,79.869.006,3.293.016,6.585.027,9.877.017,5.189.023,10.378.021,15.567.001,1.939.005,3.879.013,5.819.01,2.671.007,5.342.001,8.013.008,1.185.008,1.185.017,2.394-.032,5.405-.032,5.405-2.26,7.633-3.536-.536-3.536-.536-5-2-1.045-9.994-1.249-20.107-1.535-30.145-.032-1.095-.032-1.095-.065-2.212-.167-5.818-.318-11.637-.462-17.455-.022-.877-.044-1.754-.067-2.657-.979-39.665-1.126-79.336-1.172-119.012-.008-5.855-.022-11.71-.04-17.566-.021-7.221-.03-14.442-.024-21.663.003-3.746.001-7.491-.013-11.236-.015-4.112-.006-8.223.006-12.335-.008-1.209-.016-2.418-.023-3.663.065-10.315.065-10.315,3.395-15.056c4.149-3.409,7.997-4.795,13.188-6c.684-.161,1.368-.322,2.073-.488c2.243-.52,4.49-1.019,6.739-1.512.793-.176,1.586-.351,2.403-.532c7.447-1.639,14.882-3.207,22.413-4.406c6.204-1.016,12.272-2.427,18.372-3.937c2.21-.541,4.421-1.081,6.632-1.621c1.594-.39,1.594-.39,3.22-.789c3.176-.767,6.36-1.492,9.549-2.206C80.303,629.104,112.236,617.243,143,604c1.076-.463,2.151-.926,3.259-1.403C158.485,597.283,170.173,591.833,181,584c.929-.643,1.859-1.286,2.816-1.949C192.861,575.405,199.19,566.198,201,555c2.755-27.998-14.443-52.907-31.321-73.622-5.345-6.471-10.861-12.788-16.515-18.991-1.439-1.587-2.861-3.189-4.266-4.805C139.079,446.352,128,436.811,116,428c-.829-.614-1.658-1.227-2.512-1.859C94.742,412.631,74.103,402.639,52,396c-.176.568-.352,1.136-.533,1.72-4.4,13.753-13.019,30.894-24.095,40.578-4.225,5.087-3.021,12.253-2.931,18.495.005,1.47.007,2.941.007,4.411.007,3.086.029,6.172.065,9.258.045,3.897.06,7.794.064,11.692.022,15.698.182,31.275,2.423,46.846c1.543-.077,1.543-.077,3.117-.156C40.413,528.4,48.249,530.166,57,536c14.671-15.22,28.502-32.654,28.5-54.795-.294-9.446-4.499-16.409-10.875-23.205-9.357-8.626-20.953-11.094-33.445-11.691C39,446,39,446,37,444c.25-2.062.25-2.062,1-4c5.907-2.954,15.026-1.713,21.234.094c13.32,4.464,24.054,12.344,30.578,25.031C95.037,476.003,95.944,488.464,92,500c-6.04,14.225-14.405,26.503-24.938,37.785-1.824,1.96-3.538,3.969-5.25,6.027-7.727,8.858-16.886,16.611-26.035,23.946-3.136,2.531-6.209,5.129-9.277,7.742-3.98,3.387-7.993,6.721-12.062,10-5.465,4.461-10.709,9.135-15.832,13.981-1.092,1.033-2.189,2.061-3.291,3.084-14.59,13.619-24.986,28.86-34.003,46.64-.506.984-1.013,1.968-1.535,2.983-.441.88-.882,1.76-1.336,2.667-1.595,2.374-2.802,3.135-5.441,4.145-3.368-3.779-6.455-7.57-9.312-11.75-8.422-12.197-18.123-22.538-29.665-31.801-8.493-6.88-16.711-14.101-24.804-21.445-2.012-1.817-4.046-3.603-6.094-5.379-24.755-21.667-53.73-51-56.284-85.787-.625-12.961-.055-23.562,8.284-34.15c7.111-7.404,18.184-14.422,28.695-14.786.72.033,1.439.065,2.18.098-.059,2.254-.059,2.254-1,5-2.372,1.553-4.521,2.746-7.062,3.938-1.376.693-2.75,1.391-4.122,2.093-.661.337-1.322.673-2.003,1.02-8.49,4.445-12.461,9.967-15.926,18.781-2.672,9.547-1.212,19.99,2.113,29.168.437,1.208.874,2.416,1.324,3.66c2.786,7.419,5.759,15.046,10.676,21.34c2.175.155,2.175.155,4.5-1.312c7.551-3.641,14.021-4.89,22.355-4.77.786.006,1.571.012,2.38.018c1.922.015,3.843.039,5.765.064.026-6.842.043-13.684.055-20.526.005-2.317.012-4.633.02-6.949.058-15.538-.238-31.008-1.075-46.525-.91-.428-.91-.428-1.838-.864-5.404-2.84-9.749-7.937-14.162-12.136-.512-.483-1.024-.966-1.551-1.464-9.716-9.222-18.126-19.315-25.449-30.536-5.574.572-10.018,2.599-15,5-.839.402-1.677.805-2.542,1.219-13.431,6.578-37.616,19.097-44.458,32.781-.66,0-1.32,0-2,0-.24.563-.48,1.127-.727,1.707-1.541,2.776-3.436,4.701-5.648,6.981-24.494,26.293-52.779,72.267-51.93,109.453.749,7.028,4.279,11.623,9.657,16.011c5.916,4.128,12.284,7.472,18.648,10.848c1.079.587,2.158,1.173,3.27,1.777c35.071,18.379,74.591,28.716,112.706,38.693c2.053.538,4.106,1.078,6.158,1.619c3.438.907,6.878,1.808,10.319,2.705c1.911.499,3.82,1.002,5.73,1.504c7.458,1.934,14.921,3.572,22.48,5.043C-62.972,655.14,-62.972,655.14,-56,661c-.75,4.75-.75,4.75-3,7-8.038.942-15.646-1.796-23.312-3.938-1.384-.377-2.767-.754-4.151-1.13-9.623-2.627-9.623-2.627-13.537-3.932.047,1.633.047,1.633.095,3.299.669,25.801-.379,51.225-2.907,76.889-.066.668-.132,1.336-.199,2.024-1.2,12.163-2.503,24.314-3.82,36.464-.135,1.245-.269,2.49-.408,3.773-.252,2.326-.506,4.652-.763,6.977-.95,8.726-1.668,17.46-2.28,26.216-1.493,21.192-1.493,21.192-8.718,28.358-2.903,1.451-4.773,1.372-8,1-4.956-3.207-7.176-6.338-9-12-.268-2.791-.399-5.343-.363-8.125-.002-.772-.003-1.545-.004-2.34.002-2.512.027-5.023.055-7.535.009-1.744.018-3.489.027-5.233.136-17.187.819-34.457,2.824-51.537.527-4.508.72-9.009.899-13.542.297-6.677.774-13.295,1.5-19.938c2.548-23.819,3.395-47.816,4.062-71.75-1.727-.18-1.727-.18-3.488-.363-4.372-.55-8.476-1.594-12.7-2.825-.771-.219-1.543-.439-2.339-.666-1.648-.47-3.295-.943-4.942-1.418-2.518-.724-5.04-1.437-7.562-2.146-4.422-1.246-8.837-2.514-13.249-3.795-1.791-.518-3.584-1.033-5.377-1.543-27.412-7.82-55.561-17.554-80.468-31.564-2.439-.885-3.41-.471-5.875.32-4.058,1.93-7.987,4.111-11.938,6.25-.577.312-1.154.624-1.749.945-14.837,8.035-29.163,16.8-43.063,26.367-.722.489-1.444.978-2.188,1.481-.655.462-1.309.923-1.984,1.398-.573.399-1.146.798-1.737,1.21-1.739,1.749-2.108,2.903-2.341,5.349.621,1.869.621,1.869,1.773,3.66.408.701.816,1.401,1.237,2.123.45.752.901,1.505,1.365,2.279c23.082,40.096,37.54,85.373,52.534,128.954c1.621,4.696,3.345,9.329,5.091,13.984.33-7.26.66-14.52,1-22c3.379,3.379,3.379,3.379,4.098,6.852.241,1.139.241,1.139.487,2.302.157.816.315,1.631.477,2.471.255,1.273.255,1.273.515,2.572c4.356,22.464,4.61,45.207,4.608,68.021.003,3.672.021,7.344.04,11.016.003,2.378.005,4.756.005,7.133.008,1.077.015,2.153.022,3.262-.059,20.11-.059,20.11-5.252,28.371-3-1-3-1-4.181-2.679-1.042-2.953-.998-5.326-.916-8.458.025-1.251.05-2.501.075-3.789.025-1.003.025-1.003.051-2.027.085-3.618.118-7.237.152-10.856.007-.761.015-1.522.022-2.306.247-28.948-1.386-53.731-13.349-80.561-3.473-7.901-6.097-16.152-8.854-24.324-.229-.676-.457-1.351-.693-2.047-1.027-3.034-2.049-6.069-3.07-9.105-12.696-37.561-26.729-75.22-46.237-109.848-8.666,10.098-13.883,23.187-18.174,35.639-.915,2.616-1.878,5.212-2.842,7.81-9.514,26.045-15.858,53.045-21.984,80.051-.19.832-.38,1.664-.575,2.521-2.065,9.096-3.879,18.109-5.03,27.372C-386,812,-386,812,-387,814c-.201,1.496-.363,2.997-.5,4.5-.389,4.278-.389,4.278-1.5,6.5-.265,1.619-.486,3.246-.684,4.875-.123.986-.246,1.972-.373,2.988-.25,2.06-.5,4.12-.75,6.18-.583,4.67-1.216,9.276-2.201,13.879-1.506,7.183-2.065,14.499-2.76,21.797-.601,5.718-1.116,10.386-4.232,15.281-3-1-3-1-3.932-2.737-1.824-5.64-2.61-10.717-2.568-16.638.002-.908.004-1.817.006-2.752.344-16.107,2.557-33.478,6.535-49.089.686-2.706,1.26-5.236,1.6-7.991.097-.737.195-1.474.296-2.233.103-.783.207-1.566.313-2.372c1.658-11.714,4.303-23.174,6.956-34.696.78-3.43,1.531-6.865,2.271-10.304C-377.295,709.122,-365.202,657.402,-320,625c1.031-.766,2.062-1.531,3.125-2.32c10.213-7.532,20.999-14.155,31.875-20.68.698-.419,1.395-.839,2.114-1.271C-278.248,598,-278.248,598,-276,598c0-.66,0-1.32,0-2-.681-.165-1.361-.33-2.062-.5-7.456-3.807-11.037-10.982-13.938-18.5-.33-.66-.66-1.32-1-2-1.772-19.618,5.304-37.307,13-55c.47-1.086.47-1.086.949-2.194C-268.71,494.184,-255.078,472.302,-238,453c.737-.86,1.475-1.72,2.234-2.605c18.685-21.447,42.005-35.884,67.766-47.395-1.572-5.098-3.666-9.845-5.875-14.688C-182,370.253,-182,370.253,-182,365c-.944.058-1.887.116-2.859.176-14.864.522-24.852-4.39-36.141-14.176-14.023-13.314-23.571-31.311-24.184-50.75-.276-14.676-.046-29.04,10.746-40.25c4.563-4.383,8.379-5.486,14.622-5.402c5.034.719,9.365,3.033,13.816,5.402-1.766-5.455-3.852-10.751-5.977-16.074C-213,241,-213,241,-213,238c-1.217.124-2.434.248-3.688.375-2.582.014-3.87-.044-5.957-1.605-2.278-2.66-3.355-4.223-3.355-7.77-.608.093-1.217.186-1.844.281-10.76.886-19.952-4.202-28.226-10.687-5.499-5.187-9.111-10.606-11.93-17.594-.364-.794-.727-1.588-1.102-2.406-2.612-7.543-1.515-16.118,1.778-23.258c2.357-4.159,5.168-7.756,8.324-11.336.574-.668,1.147-1.335,1.738-2.023c5.84-6.328,12.982-10.518,20.262-14.977c3.141-1.607,3.141-1.607,3.492-3.996.056-.806.111-1.611.168-2.442.072-.895.143-1.791.217-2.714.061-.94.122-1.88.185-2.848c2.071-28.91,12.551-59.986,31.938-82c.741-.847,1.482-1.694,2.246-2.566C-186.843,37.688,-171.255,29.154,-156,21c.831-.448,1.661-.896,2.517-1.358C-113.47,-1.883,-113.47,-1.883,-93,-8c.973-.315,1.946-.629,2.949-.953C-61.339,-17.041,-28.068,-6.474,0,0Z"
      transform="translate(576 105)" fill="#0c1030" />
  </g>
  <g>
    <path
      d="M0,0C12.316,3.822,23.702,11.879,34.332,18.941c.978.648,1.955,1.296,2.962,1.964c6.842,4.622,13.205,9.683,19.538,14.974c1.663,1.337,3.329,2.672,5,4-1.32,4.414-3.067,8.057-5.437,12-10.641,18.229-18.883,37.37-26.563,57-.362.916-.724,1.832-1.097,2.776-5.655,14.339-10.649,28.898-15.624,43.485-2.117,6.19-4.261,12.37-6.404,18.551-.753,2.174-1.505,4.347-2.258,6.52-.539,1.556-1.078,3.112-1.617,4.668-.33,0-.66,0-1,0c0-7.59,0-15.18,0-23-.66,0-1.32,0-2,0-3.13,15.7-4.876,31.224-5.766,47.205-.234,2.795-.234,2.795-.739,5.623-.463,2.967-.628,5.722-.64,8.72-.007,1.067-.013,2.133-.02,3.232-.001,1.144-.002,2.288-.003,3.466-.003,1.202-.007,2.404-.01,3.643-.005,2.551-.007,5.102-.007,7.653-.002,3.823-.021,7.645-.04,11.468-.027,11.651.122,23.231,1.116,34.845.078.917.156,1.834.237,2.779.67,6.92,1.656,14.116,4.872,20.366.99.33,1.98.66,3,1c2.246-7.636,1.157-16.036.294-23.84-1.323-12.095-1.698-24.122-1.72-36.283-.012-3.271-.061-6.54-.111-9.811-.094-12.202.938-21.76,5.537-33.066.599-1.962,1.169-3.933,1.703-5.914.254-.931.507-1.862.768-2.822.257-.953.514-1.907.779-2.889c2.643-9.617,5.475-19.165,8.438-28.688.552-1.777.552-1.777,1.116-3.59c2.945-9.411,5.898-18.822,9.423-28.036.92-2.453,1.785-4.923,2.648-7.397c7.214-20.576,15.559-40.547,24.938-60.227.526-1.111,1.053-2.223,1.596-3.368c3.087-6.378,6.468-12.303,10.591-18.069c2.443,2.359,4.043,4.539,5.625,7.562.425.785.851,1.57,1.289,2.379c1.003,2.825,1.314,4.895,1.539,7.848.417,5.104,1.81,9.286,3.672,14.023c4.589,12.437,7.493,25.233,10.412,38.143.471,2.079.945,4.157,1.42,6.235c7.472,32.742,14.7,65.646,20.043,98.81.294,1.814.294,1.814.594,3.664c2.163,13.665,3.762,27.174,3.844,41.023.015,1.62.015,1.62.03,3.272-.117,10.615-2.056,21.018-9.468,29.041-9.67,7.722-22.09,10.361-34.062,12.125-.98.156-1.959.312-2.967.473-15.564,2.397-31.238,3.728-46.959,4.492-.834.041-1.668.083-2.528.126-22.44,1.096-44.895,1.195-67.357,1.327-8.79.052-17.58.117-26.37.186-2.159.016-4.318.033-6.477.049-13.246.1-26.478.323-39.717.745-22.328.706-44.66.591-66.996.546-5.728-.011-11.455-.015-17.182-.02-11.128-.011-22.257-.028-33.385-.049c1.27-2.449,1.27-2.449,3-5c3.688-.813,3.688-.813,7-1c.798-2.816,1.126-5.314,1.129-8.237.003-.843.006-1.686.009-2.555-.001-.921-.003-1.842-.004-2.791.002-.983.004-1.966.007-2.978.006-3.302.005-6.603.004-9.905.003-2.364.007-4.727.01-7.091.009-6.428.012-12.855.012-19.283.001-4.014.003-8.029.006-12.043.009-13.277.013-26.554.012-39.832c0-.715,0-1.431,0-2.169c0-.716,0-1.433,0-2.171c0-11.612.009-23.225.023-34.837.015-11.925.022-23.85.021-35.775c0-6.695.002-13.389.013-20.083.01-6.296.01-12.592.003-18.889-.002-2.311.001-4.622.007-6.933.008-3.155.003-6.309-.005-9.464.005-.915.011-1.829.016-2.771-.028-5.119-.603-9.343-2.263-14.193c3.63,0,7.26,0,11,0-.007,2.513-.007,2.513-.013,5.078-.442,97.656-.442,97.656.951,195.297.021.87.043,1.741.066,2.637.143,5.65.296,11.3.461,16.949.029,1.02.029,1.02.059,2.061.274,9.346.799,18.654,1.476,27.978c1.946.591,1.946.591,4,1c1.775-1.775,1.126-4.145,1.136-6.509-.003-1.19-.003-1.19-.007-2.405.002-.835.004-1.67.006-2.53.004-2.799.001-5.597-.002-8.396.001-1.968.002-3.937.004-5.905.003-5.296-.002-10.592-.008-15.888-.004-3.308-.006-6.617-.007-9.925-.01-25.545-.12-51.075-.693-76.614-.885-40.264-.513-80.556-.429-120.828.932-.166,1.863-.332,2.823-.503c3.521-.629,7.042-1.262,10.562-1.896c1.512-.271,3.023-.542,4.535-.811c8.519-1.519,16.959-3.133,25.357-5.246c2.655-.53,5.024-.647,7.723-.544.067,1.861.067,1.861.136,3.759c1.083,30.404,1.083,30.404,3.302,60.741c1.273,13.738,2.303,27.481,3.187,41.25.065,1.005.13,2.01.197,3.046.632,9.874,1.221,19.742,1.483,29.634.019.713.038,1.426.058,2.161.081,3.212.141,6.422.171,9.634.175,9.832.522,20.241,7.466,27.775c2.853,1.427,4.835,1.31,8,1c4.723-2.526,5.939-5.707,7.422-10.586c1.426-5.957,1.776-11.678,1.851-17.773.013-.945.025-1.89.038-2.863.032-3.176.051-6.352.064-9.528.008-1.656.008-1.656.016-3.345.062-28.985-2.208-57.823-4.365-86.709-1.155-15.48-2.256-30.976-2.088-46.509.004-.859.009-1.718.013-2.603.012-2.028.029-4.056.049-6.084.638-.186,1.276-.372,1.933-.563c5.231-1.524,10.462-3.05,15.692-4.578c3.623-1.058,7.248-2.112,10.875-3.156c8.475-2.447,16.901-5.047,25.313-7.703c1.026-.32,2.052-.641,3.109-.971c6.143-1.957,12.07-4.205,17.999-6.735c3.191-1.341,6.405-2.598,9.638-3.837C-35.934,15.854,-11.899,-0.665,0,0Z"
      transform="translate(754.168 704.121)" fill="#f1f1f1" />
  </g>
  <g>
    <path
      d="M0,0C21.653,2.839,43.865,16.09,61,29c1.497,1.073,1.497,1.073,3.023,2.168c6.489,4.712,12.418,9.812,18.25,15.293c2.156,2.007,4.338,3.91,6.602,5.789C98.97,61.018,107.716,71.548,116,82c.639.771,1.279,1.542,1.938,2.336C135.495,105.646,152.117,130.245,150,159c-2.551,13.277-10.452,22.877-21.309,30.547-23.706,16.02-51.571,25.791-78.393,35.282-2.922,1.038-5.836,2.095-8.747,3.163-33.218,12.084-68.251,19.78-103.031,25.789-14.218,1.896-14.218,1.896-26.082,8.907-3.835,3.638-8.33,3.214-13.438,3.312.325.787.65,1.574.984,2.384c1.287,4.581,1.293,8.733,1.27,13.467.005,1.48.005,1.48.009,2.991.008,3.305.002,6.61-.004,9.915.002,2.37.006,4.74.01,7.111.01,6.435.006,12.871,0,19.306-.004,4.018-.003,8.036-.001,12.054c0,.667,0,1.335.001,2.022c0,1.355.001,2.711.002,4.066.005,12.703-.001,25.406-.012,38.11-.009,10.903-.007,21.807.002,32.711.01,12.663.015,25.325.009,37.988-.001,1.349-.002,2.699-.002,4.048-.001.996-.001.996-.001,2.012-.002,4.683.001,9.366.006,14.049.005,6.298.001,12.596-.01,18.894-.003,2.316-.002,4.632.002,6.948.006,3.151-.001,6.303-.011,9.454.007,1.388.007,1.388.013,2.803-.007,1.263-.007,1.263-.015,2.551-.001.728-.001,1.455-.001,2.205C-99,513,-99,513,-101,516c-4.875-.875-4.875-.875-6-2-.1-3.044-.134-6.065-.127-9.109-.002-.967-.003-1.935-.005-2.932-.004-3.27-.001-6.539.003-9.809-.002-2.334-.004-4.667-.006-7.001-.004-6.36-.002-12.719.001-19.079.002-5.973,0-11.946-.001-17.919-.003-12.559,0-25.117.006-37.676.004-10.772.003-21.545-.001-32.317-.006-12.504-.008-25.007-.005-37.51.002-6.621.002-13.241-.001-19.862-.003-6.23-.001-12.459.005-18.689.001-2.287.001-4.574-.002-6.861-.002-3.122.001-6.244.006-9.366-.002-.905-.004-1.809-.007-2.742.015-4.816.323-9.378,1.134-14.128-.99.33-1.98.66-3,1c0-1.65,0-3.3,0-5-10.589-6.177-23.198-7.823-35.027-10.471-1.345-.301-2.69-.603-4.035-.904-.677-.151-1.353-.303-2.05-.459-11.337-2.541-22.592-5.319-33.81-8.342-3.449-.923-6.902-1.827-10.355-2.73-38.954-10.22-79.475-21.386-114.973-40.906-1.148-.629-1.148-.629-2.319-1.27-9.179-5.224-18.893-11.519-22.431-21.918-4.911-32.359,22.779-74.085,40.656-98.707c4.511-6.053,9.391-11.744,14.532-17.27c1.962-2.094,1.962-2.094,3.812-5.023.66,0,1.32,0,2,0c.255-.591.51-1.182.773-1.79c1.353-2.438,2.735-3.774,4.86-5.565.716-.606,1.431-1.211,2.169-1.834c1.088-.896,1.088-.896,2.198-1.811.645-.534,1.291-1.069,1.956-1.62C-250.679,35.941,-239.905,29.051,-228,23c.651-.337,1.302-.674,1.973-1.021c9.664-4.965,9.664-4.965,13.605-5.006c3.48,1.476,4.907,4.071,6.86,7.152C-199.879,32.572,-193.09,39.728,-186,47c.946.985,1.891,1.971,2.836,2.957c4.215,4.511,4.215,4.511,9.104,8.214c3.128,1.958,5.568,3.517,6.895,7.056.41,2.696.574,5.308.653,8.035.058,1.003.115,2.007.174,3.041.164,3.232.262,6.461.338,9.697.027,1.063.053,2.127.081,3.223.138,6.447.162,12.889.125,19.337-.019,3.323-.021,6.646-.02,9.969-.005,2.122-.011,4.244-.018,6.366-.001.989-.002,1.978-.003,2.998-.007.906-.013,1.813-.02,2.747-.004.797-.007,1.593-.011,2.414C-166,135,-166,135,-167,137c-1.58.021-1.58.021-3.191.043-11.154.311-22.282,1.605-31.809,7.957-5.533-9.39-10.625-18.577-14-29-.245-.752-.49-1.503-.742-2.277-2.862-10.524-2.653-22.142,2.742-31.723.378-.695.755-1.39,1.145-2.105c5.115-7.991,14.217-12.269,22.605-16.145c3.382-1.342,3.382-1.342,3.953-3.859.098-.624.196-1.248.297-1.891-8.853,2.169-16.499,4.667-24,10-.646.428-1.292.856-1.957,1.297-6.414,4.751-9.572,12.29-12.043,19.703-.875,10.786-.645,21.752,3,32c.414,1.177.828,2.354,1.254,3.566c6.465,17.538,16.705,32.271,29.426,45.926c1.927,2.083,3.755,4.204,5.57,6.383c7.665,8.83,16.885,16.531,25.75,24.125c1.081.935,2.162,1.87,3.242,2.805c5.204,4.492,10.403,8.961,15.82,13.195c13.451,10.663,24.891,22.706,34.676,36.801c1.996,2.823,4.071,5.526,6.262,8.199c3.771-1.257,3.908-2.207,5.645-5.68.755-1.472.755-1.472,1.527-2.975.541-1.062,1.083-2.125,1.64-3.22C-76.757,224.757,-58.386,204.847,-36,187c1.424-1.159,2.846-2.32,4.266-3.484.654-.536,1.308-1.072,1.983-1.623C-2.987,160.34,-2.987,160.34,20,135c.758-.966,1.516-1.931,2.297-2.926C34.533,116.245,42.843,100.471,41,80c-2.823-11.646-9.569-21.374-19.273-28.395C10.985,45.281,0.43,42.684,-12,44c-.66.33-1.32.66-2,1c.33,1.32.66,2.64,1,4c1.039.11,2.078.219,3.148.332C1.93,50.639,11.819,51.912,21,60c.607.503,1.214,1.005,1.84,1.523C29.234,67.26,33.391,74.349,34.512,82.91C35.429,101.627,26.071,117.388,14,131c-.849.959-1.699,1.918-2.574,2.906C9.298,136.284,7.157,138.649,5,141c-1.247-.632-1.247-.632-2.52-1.277-1.086-.548-2.173-1.096-3.292-1.661-1.079-.545-2.158-1.09-3.27-1.652-4.578-2.212-8.604-2.688-13.606-2.972-1.052-.065-1.052-.065-2.126-.131-1.729-.106-3.457-.207-5.186-.307-.318-1.478-.629-2.958-.938-4.438-.174-.823-.348-1.647-.527-2.496-2.238-12.826-1.931-25.905-2.032-38.885-.03-3.957-.077-7.912-.161-11.868-.083-3.856-.125-7.71-.14-11.566-.012-1.458-.038-2.915-.078-4.371-.195-7.364-.059-13.076,4.732-19.064C-22.771,38.867,-21.39,37.429,-20,36c2.126-2.944,4.071-5.986,6-9.062.507-.804,1.014-1.607,1.536-2.435C-7.609,16.648,-3.681,8.456,0,0Z"
      transform="translate(628 501)" fill="#f1f1f1" />
  </g>
  <g>
    <path
      d="M0,0C4.008,2.987,7.21,6.321,9.469,10.84c.497,4.395.467,6.34-2.125,10-2.875,2-2.875,2-5.688,2.062-3.237-1.079-6.095-2.43-9.109-4.011-11.441-5.785-25.05-7.224-37.391-3.489-12.589,4.833-21.864,13.805-27.679,25.883-5.033,12.756-4.27,25.616.515,38.246c5.883,13.181,15.385,20.628,28.477,26.309c9.374,3.125,23.793,2.559,32.875-1.125c1.737-.905,3.449-1.861,5.125-2.875.813-.435,1.627-.869,2.465-1.317C7.17,94.545,11.936,84.058,15.719,73.277c2.637-12.172.923-23.228-4.25-34.437-.66-.99-1.32-1.98-2-3c0-1.32,0-2.64,0-4c1.32-.33,2.64-.66,4-1c5,5.75,5,5.75,5,8c.976-.047,1.951-.093,2.957-.141c1.272-.036,2.544-.072,3.855-.109c1.265-.047,2.529-.093,3.832-.141c3.356.391,3.356.391,5.293,2.141c1.684,3.566,1.258,6.343,1.063,10.25.33,0,.66,0,1,0c.676,24.065-.606,47.026-4.623,70.762-.382,2.264-.753,4.529-1.122,6.795-7.207,44.079-18.986,89.968-52.654,121.88-1.772,1.729-3.367,3.556-4.976,5.438-3.971,4.613-8.279,8.867-12.625,13.125-1.75-2.228-2.977-3.936-3.938-6.625-1.291-2.887-2.169-3.269-5.062-4.375-1.334-.667-2.667-1.333-4-2-.33.99-.66,1.98-1,3-.784-.64-1.568-1.279-2.375-1.938-2.913-1.987-5.127-2.331-8.625-2.5-5.324-.319-7.234-1.886-11-5.562-3.385-2.222-5.981-2.619-10-2-3.703,2.252-6.941,4.94-10,8-1.989.273-1.989.273-4.313.375-4.327.383-6.594,1.435-9.687,4.625-.33.66-.66,1.32-1,2-1.98-.33-3.96-.66-6-1-1.618,3.009-2.676,5.971-3.625,9.25-.261.892-.521,1.784-.789,2.703-.29,1.013-.29,1.013-.586,2.047-3.625-1.495-5.59-3.543-8.125-6.5-5.86-6.669-11.976-13.012-18.692-18.824-46.247-40.215-68.465-103.796-73.695-163.891-.296-4.265-.44-8.51-.488-12.785-.021-.721-.041-1.441-.062-2.184-.112-5.534-.112-5.534,1.562-8.254c2.624-1.64,3.586-1.732,6.562-1.875c1.3-.227,2.599-.453,3.938-.687c2.054-3.347,2.054-3.347,3-7c.33-.66.66-1.32,1-2c1.65.33,3.3.66,5,1-.884,6.563-.884,6.563-1.525,8.968-.868,3.709-.66,7.489-.663,11.282-.018,1.232-.018,1.232-.037,2.488-.028,12.009,4.078,22.107,12.225,31.012c10.711,10.094,22.99,12.57,37.359,12.387c11.919-.448,21.8-5.681,30.078-14.387c10.878-13.252,11.933-27.263,10.563-43.75-.833-4.432-2.616-8.184-5-12-.446-.728-.892-1.457-1.352-2.207-6.912-10.098-16.216-16.443-28.078-19.399-15.858-2.434-29.422,1.77-42.473,10.746-3.036,2.012-4.725,2.876-8.414,2.715-2.683-.855-2.683-.855-4.558-2.418-1.645-3.564-1.96-6.65-1.125-10.437c5.825-11.203,17.295-17.818,28.746-22.004c15.455-4.869,35.781-5.545,50.691,1.316c3.757,2.049,6.527,3.801,8.563,7.688.977,5.083-.242,7.774-3,11.937-.985,1.366-1.98,2.724-3,4.063.557.536,1.113,1.072,1.687,1.625c7.103,7.294,11.127,15.183,15.313,24.375.582-.217,1.165-.433,1.765-.656c6.874-2.335,13.012-2.679,20.235-2.344.082-1.135.165-2.269.25-3.438c1.299-10.129,7.626-19.621,13.75-27.562-1.083-.062-1.083-.062-2.188-.125-4.081-1.27-5.298-3.452-7.812-6.875-1.509-3.018-1.501-4.623-1-8c6.051-9.975,16.805-13.601,27.617-16.266C-34.465,-12.936,-15.919,-9.993,0,0Z"
      transform="translate(606.531 301.16)" fill="#f1f1f1" />
    <polygon
      points="-1.578084,-97.397501 97.388187,-31.64334 60.18921,82.84334 -60.18921,82.84334 -97.388187,-31.64334 -1.578084,-97.397501"
      transform="matrix(.008889 0.00098-.00789 0.071569 590.838228 489.635476)" fill="#fff" stroke-width="0" />
    <polygon
      points="-1.578084,-97.397501 97.388187,-31.64334 60.18921,82.84334 -60.18921,82.84334 -97.388187,-31.64334 -1.578084,-97.397501"
      transform="matrix(.008782 0.001687-.013581 0.070711 587.140853 489.066626)" fill="#fff" stroke-width="0" />
    <polygon
      points="-1.578084,-97.397501 97.388187,-31.64334 60.18921,82.84334 -60.18921,82.84334 -97.388187,-31.64334 -1.578084,-97.397501"
      transform="matrix(.006933 0.003045-.031498 0.071717 583.324189 489.000375)" fill="#fff" stroke-width="0" />
    <polygon
      points="-1.578084,-97.397501 97.388187,-31.64334 60.18921,82.84334 -60.18921,82.84334 -97.388187,-31.64334 -1.578084,-97.397501"
      transform="matrix(.009465 0.004331-.039161 0.085588 579.666052 488.569545)" fill="#fff" stroke-width="0" />
  </g>
  <g>
    <path
      d="M0,0C1.679,2.024,3.041,3.921,4.438,6.125C10.121,14.572,16.91,21.728,24,29c.946.985,1.891,1.971,2.836,2.957c4.215,4.511,4.215,4.511,9.104,8.214c3.128,1.958,5.568,3.517,6.895,7.056.41,2.696.574,5.308.653,8.035.058,1.003.115,2.007.174,3.041.164,3.232.262,6.461.338,9.697.027,1.063.053,2.127.081,3.223.138,6.447.162,12.889.125,19.337-.019,3.323-.021,6.646-.02,9.969-.005,2.122-.011,4.244-.018,6.366-.001.989-.002,1.978-.003,2.998-.007.906-.013,1.813-.02,2.747-.004.797-.007,1.593-.011,2.414C44,117,44,117,43,119c-1.053.014-2.106.028-3.191.043C28.655,119.354,17.527,120.648,8,127c-5.533-9.39-10.625-18.577-14-29-.245-.752-.49-1.503-.742-2.277C-9.604,85.199,-9.395,73.581,-4,64c.378-.695.755-1.39,1.145-2.105C2.26,53.904,11.362,49.626,19.75,45.75c3.382-1.342,3.382-1.342,3.953-3.859.098-.624.196-1.248.297-1.891-8.853,2.169-16.499,4.667-24,10-.646.428-1.292.856-1.957,1.297C-8.371,56.048,-11.529,63.587,-14,71c-.875,10.786-.645,21.752,3,32c.414,1.177.828,2.354,1.254,3.566c6.465,17.538,16.705,32.271,29.426,45.926c1.927,2.083,3.755,4.204,5.57,6.383C32.915,167.705,42.135,175.406,51,183c1.081.935,2.162,1.87,3.242,2.805c5.204,4.492,10.403,8.961,15.82,13.195c13.451,10.663,24.891,22.706,34.676,36.801c3.683,5.79,3.683,5.79,9.262,9.199-.33.99-.66,1.98-1,3-2.062.688-2.062.688-4,1c.325.624.65,1.249.984,1.892c1.411,4.316,1.292,8.325,1.27,12.838.005,1.48.005,1.48.009,2.989.008,3.308.002,6.616-.004,9.924.002,2.37.006,4.741.01,7.111.009,5.771.007,11.541.002,17.312-.005,4.689-.006,9.378-.003,14.067c0,.668,0,1.335.001,2.023c0,1.355.001,2.711.002,4.066.005,12.71-.001,25.42-.012,38.13-.009,10.91-.007,21.82.002,32.73.01,12.667.015,25.335.009,38.002-.001,1.35-.002,2.7-.002,4.05-.001.997-.001.997-.001,2.013-.002,4.686.001,9.371.006,14.056.005,6.302.001,12.604-.01,18.906-.003,2.318-.002,4.636.002,6.953.006,3.154-.001,6.308-.011,9.462.007,1.388.007,1.388.013,2.804-.007,1.264-.007,1.264-.015,2.553-.001.728-.001,1.457-.001,2.207C111,495,111,495,109,498c-4.875-.875-4.875-.875-6-2-.1-3.044-.134-6.065-.127-9.109-.002-.967-.003-1.935-.005-2.932-.004-3.27-.001-6.539.003-9.809-.002-2.334-.004-4.667-.006-7.001-.004-6.36-.002-12.719.001-19.079.002-5.973,0-11.946-.001-17.919-.003-12.559,0-25.117.006-37.676.004-10.772.003-21.545-.001-32.317-.006-12.504-.008-25.007-.005-37.51.002-6.621.002-13.241-.001-19.862-.003-6.23-.001-12.459.005-18.689.001-2.287.001-4.574-.002-6.861-.002-3.122.001-6.244.006-9.366-.002-.905-.004-1.809-.007-2.742.015-4.816.323-9.378,1.134-14.128-.99.33-1.98.66-3,1c0-1.65,0-3.3,0-5-10.589-6.177-23.198-7.823-35.027-10.471-1.345-.301-2.69-.603-4.035-.904-.677-.151-1.353-.303-2.05-.459-11.337-2.541-22.592-5.319-33.81-8.342-3.449-.923-6.902-1.827-10.355-2.73-38.954-10.22-79.475-21.386-114.973-40.906-1.148-.629-1.148-.629-2.319-1.27-9.179-5.224-18.893-11.519-22.431-21.918-4.911-32.359,22.779-74.085,40.656-98.707c4.511-6.053,9.391-11.744,14.532-17.27C-66.85,41.929,-66.85,41.929,-65,39c.66,0,1.32,0,2,0c.255-.591.51-1.182.773-1.79c1.353-2.438,2.735-3.774,4.86-5.565.716-.606,1.431-1.211,2.169-1.834c1.088-.896,1.088-.896,2.198-1.811.645-.534,1.291-1.069,1.956-1.62C-40.679,17.941,-29.905,11.051,-18,5c.651-.337,1.302-.674,1.973-1.021C-4.536,-1.924,-4.536,-1.924,0,0Z"
      transform="translate(418 519)" fill="#f1f1f1" />
  </g>
  <g>
    <path
      d="M0,0c1.958.543,3.912.977,5.903,1.382C23.435,4.983,40.13,11.74,56.86,17.957c2.162.801,4.325,1.602,6.487,2.403c4.283,1.588,8.561,3.189,12.836,4.798c2.037.76,4.076,1.519,6.115,2.275.986.367,1.972.734,2.988,1.113c7.165,2.604,14.377,4.657,21.878,6.049c2.191.478,2.191.478,5.794,1.947c2.585,4.355,3.577,8.88,4.57,13.817.257,1.259.513,2.517.778,3.814.259,1.311.518,2.621.777,3.932.266,1.315.533,2.629.801,3.943c3.219,15.94,3.219,15.94,3.137,21.369-.01.782-.019,1.563-.028,2.368-.017.87-.017.87-.035,1.757-.66.33-1.32.66-2,1c.035-.922.035-.922.07-1.863.018-.808.036-1.616.055-2.449.035-1.201.035-1.201.07-2.426-.037-2.545-.037-2.545-2.195-5.262-3.219-.359-3.219-.359-6.875-.312-3.832-.176-3.832-.176-7.125-.688-2.562-3-2.562-3-4-6-2.628-.962-2.628-.962-5-1c.392.867.784,1.733,1.188,2.625.607,1.457,1.21,2.916,1.812,4.375.433.997.866,1.993,1.313,3.02c4.509,11.21,5.912,22.905,1.73,34.547-5.204,12.143-10.313,20.9-22.043,27.433-.731.417-1.462.833-2.215,1.262-10.38,4.795-24.648,4.379-35.625,1.856-10.807-4.201-21.362-12.723-26.699-23.114-5.838-13.673-8.316-28.085-2.789-42.293c6.31-12.88,16.413-22.75,30.016-27.586c8.988-2.399,19.527-2.335,28.312.875c1.076.388,2.153.776,3.262,1.176c9.083,3.388,9.083,3.388,12.738,5.824c2.717-.203,4.497-.687,6.813-2.125c1.929-3.046,1.605-5.352,1.187-8.875-5.434-10.263-16.854-14.813-27.375-18.375-17.245-4.545-36.836-2.579-52.527,5.961-4.452,3.001-7.633,6.134-8.723,11.477.811,3.81,2.112,5.961,4.625,8.937c3.1,1.886,3.1,1.886,6,3-1.477,3.173-3.308,5.888-5.312,8.75-4.49,6.923-6.541,14.365-8.688,22.25-1.158.122-3.508.368-3.508.368s-3.078.338-4.617.507c-.761.079-1.521.158-2.305.239-4.43.496-8.372,1.29-12.57,2.886-.402-1.107-.402-1.107-.812-2.238-3.709-9.6-8.751-17.606-16.188-24.762.433-.568.866-1.136,1.313-1.722c2.691-3.732,4.546-6.433,5.312-11.028-.752-3.91-1.889-5.382-4.625-8.25-2.984-1.626-2.984-1.626-6.312-2.75-1.09-.407-2.179-.814-3.301-1.234-17.471-5.239-38.111-2.658-54.387,4.984-7.103,4.062-14.26,9.52-18,17-.546,5.607-.546,5.607,1.625,10.563c2.31,1.707,2.31,1.707,5.152,1.262c3.688-.943,6.025-2.428,9.161-4.575c12.461-8.035,25.798-11.49,40.578-8.55c7.023,1.935,12.84,4.699,18.484,9.3.687.552,1.374,1.104,2.082,1.672c6.703,5.998,13.329,16.471,14.111,25.574.482,15.684.307,28.237-10.314,40.762-8.908,9.446-18.277,15.496-31.43,16.176-15.065.257-26.397-2.214-37.699-12.746-9.608-10.129-12.927-20.295-12.937-33.875-.013-.821-.025-1.641-.038-2.486-.012-5.068.697-9.201,2.225-14.077c0-1.32,0-2.64,0-4-1.32-.33-2.64-.66-4-1-.205.639-.41,1.277-.621,1.934-.27.826-.539,1.653-.816,2.504-.267.824-.534,1.647-.809,2.496-.754,2.066-.754,2.066-1.754,3.066-2.574.532-5.159.965-7.75,1.403-.742.197-1.485.394-2.25.597-1.533,3.066-.966,6.117-.84,9.493-.17,2.67-.807,4.226-2.16,6.507-.027-2.645-.047-5.291-.062-7.937-.009-.755-.017-1.51-.026-2.287-.009-1.925.036-3.851.088-5.776.495-.495.495-.495,1-1c.124-2.503.187-4.983.211-7.488.026-1.581.052-3.162.079-4.744.014-.83.027-1.661.04-2.517.41-23.561.41-23.561,1.983-34.188.105-.759.211-1.518.319-2.3c1.719-10.151,9.719-17.438,17.727-23.282c11.602-8.116,24.306-14.708,37.641-19.481c1.115-.409,2.23-.819,3.379-1.242C-51.038,-5.026,-24.261,-7.064,0,0Z"
      transform="translate(520.042 264.458)" fill="#f1f1f1" />
  </g>
  <g>
    <path
      d="M0,0c2.994.64,5.99,1.263,8.99,1.873C44.062,9.005,75.622,18.576,96.716,49.714c12.734,19.379,19.432,41.386,22.67,64.219.18,1.266.361,2.532.547,3.837c1.334,10.001,1.737,19.84,1.659,29.924-.019,2.463-.021,4.926-.021,7.389-.005,1.589-.01,3.178-.017,4.768-.001.725-.003,1.45-.004,2.197-.037,4.06-.382,7.9-1.164,11.885-.867-.784-1.733-1.568-2.625-2.375-3.625-3.109-7.432-5.912-11.313-8.688-.572-.411-1.145-.822-1.735-1.245-.571-.405-1.141-.81-1.73-1.228-.574-.419-1.149-.839-1.741-1.271-1.846-1.269-1.846-1.269-4.049-2.072-2.546-1.12-4.01-1.979-5.807-4.121-.978-4.414-1.001-8.73-.916-13.223.055-2.992.025-5.981,0-8.973-.012-1.498-.019-2.997-.022-4.496-.019-6.076-.38-12.075-1-18.121-.133-1.305-.133-1.305-.27-2.637-.176-1.694-.356-3.388-.539-5.081-.253-2.469-.459-4.937-.652-7.411-1.683-20.726-4.181-47.921-18.601-64.058.623,4.512,1.786,8.525,3.312,12.812C84.43,75.966,85.643,113.12,85.386,148.933c-5.818-1.824-11.301-3.969-16.813-6.563-16.983-7.751-34.966-14.285-53.187-18.437.015-.681.031-1.362.047-2.064.063-3.083.102-6.166.14-9.249.025-1.072.051-2.144.076-3.248.01-1.028.02-2.056.03-3.115.015-.948.031-1.896.047-2.872-.146-2.479-.146-2.479-1.628-4.211-2.649-1.92-5.57-2.471-8.712-3.241-.014-1.293-.029-2.586-.043-3.918-.387-17.156-4.391-29.872-16.145-42.77-11.651-11.027-26.215-14.851-41.812-15.312-.306-12.147.616-23.939,2-36-.66-.33-1.32-.66-2-1C-43.045,-12.637,-11.34,-2.426,0,0Z"
      transform="translate(547.614 110.067)" fill="#fefefe" />
  </g>
  <g>
    <path
      d="M0,0c.006.712.012,1.423.018,2.157.058,6.793.131,13.586.218,20.379.044,3.491.083,6.981.11,10.471C-0.994,62.958,-0.994,62.958,11,89c2.584.167,2.584.167,5,0c.99-1.98.99-1.98,2-4c5.802-.363,9.64.743,15,3-1.328,3.03-2.658,4.826-5.238,6.883-.649.522-1.298,1.045-1.967,1.583-.695.548-1.391,1.095-2.107,1.659-.717.572-1.433,1.144-2.171,1.733-2.165,1.723-4.339,3.435-6.517,5.142-.615.484-1.23.968-1.864,1.467C9.457,109.356,5.738,112.187,2,115c-.825.647-1.65,1.294-2.5,1.961-23.169,17.453-56.433,17.442-83.98,13.773-20.328-3.113-39.023-12.23-57.208-21.484-.995-.492-.995-.492-2.011-.993-4.744-2.508-8.359-5.734-11.301-10.257-.663-2.218-.663-2.218-1-4c5.657-2.455,9.917-4.13,16.188-4.062c1.086.009,2.173.018,3.292.027.832.011,1.663.023,2.52.035-.021,1.134-.041,2.269-.062,3.438-.354,3.378-.354,3.378,1.062,4.562c2,.041,4,.043,6,0c7.955-13.352,8.618-28.931,8.75-44.062.028-1.657.058-3.314.09-4.971.072-3.989.123-7.978.16-11.967c3.178,1.548,6.01,3.327,8.938,5.312c15.522,9.948,34.601,13.704,52.718,9.813c18.475-4.705,31.107-15.128,41.005-31.216c2.664-4.492,4.72-8.99,6.48-13.913C-7.09,2.887,-4.666,0,0,0Z"
      transform="translate(591 560)" fill="#f1f1f1" />
  </g>
  <g>
    <path
      d="M0,0c15.342-.229,30.626.295,45.816,2.535c2.607.381,5.187.67,7.809.903C59.525,4.067,65.242,5.61,71,7c2.208.502,4.416,1.002,6.625,1.5C83.464,9.852,89.236,11.36,95,13c.64.178,1.28.356,1.939.539c2.168.604,4.334,1.219,6.499,1.836c1.001.277,1.001.277,2.022.56C130.506,23.173,162.489,37.144,179,58c-14.12,4.822-29.886,4.656-44,0-1.778-.553-3.557-1.103-5.336-1.652-10.24-3.188-20.296-6.579-30.241-10.593-20.11-8.031-40.656-14.948-61.905-19.203-2.802-.614-5.548-1.377-8.315-2.134C22.76,22.785,16.5,22.416,9.875,22.25c-1.121-.043-2.243-.085-3.398-.129C1.072,21.673,1.072,21.673,-4,23c-2.248.249-4.498.474-6.75.688C-28.117,25.67,-44.41,31.256,-60,39c-.726.355-1.451.709-2.199,1.075C-78.211,47.962,-91.762,58.092,-105,70c-1.158,1.031-1.158,1.031-2.34,2.082-4.654,4.378-8.195,9.299-11.692,14.615-2.779,4.209-2.779,4.209-4.968,5.303-12.261,1.083-21.332.001-31.336-7.828-6.388-5.842-10.789-12.84-11.352-21.61.522-9.729,6.41-17.078,13.29-23.511c17.724-15.155,39.349-22.628,61.71-27.863c1.239-.291,2.478-.581,3.755-.88c17.519-3.95,34.872-5.508,52.808-5.496.658.001,1.316.001,1.994.001c13.166.025,25.226,1.341,38.029,4.472c2.966.684,5.907,1.194,8.914,1.653c6.101.968,12.031,2.46,18.004,4.003c2.729.702,5.46,1.356,8.211,1.961c10.779,2.379,21.189,5.584,31.672,9.024c3.72,1.21,7.447,2.393,11.176,3.574c2.069.658,4.138,1.317,6.207,1.976c1.34.425,2.68.85,4.021,1.273c7.566,2.388,14.934,4.984,22.226,8.113c3.619,1.542,7.29,2.912,10.983,4.263c3.861,1.416,7.673,2.852,11.422,4.543c3.65,1.488,6.362,1.571,10.266,1.332c0-.99,0-1.98,0-3-.759-.229-1.519-.459-2.301-.695-6.095-2.15-11.945-4.873-17.849-7.496C121.316,36.933,114.73,34.376,108,32c-1.751-.644-3.501-1.289-5.25-1.938C95.882,27.563,88.94,25.29,82,23c-1.5-.499-3-.999-4.5-1.5-.647-.214-1.295-.428-1.962-.649-1.884-.632-3.764-1.279-5.641-1.933-9.709-3.337-19.491-5.984-29.459-8.418-1.583-.391-3.165-.782-4.748-1.174C23.827,6.402,11.935,3.616,0,1c0-.33,0-.66,0-1Z"
      transform="translate(483 232)" fill="#fefefe" />
  </g>
  <g>
    <path
      d="M0,0c-.289,1.134-.577,2.269-.875,3.438C-3.382,14.71,-4.158,26.504,-5,38c-.727.147-1.454.294-2.203.445-15.71,3.505-27.607,11.14-37.262,24.082-4.121,6.638-7.658,14.566-7.668,22.438-.001.965-.002,1.93-.004,2.924.004,1.006.008,2.012.012,3.049-.004,1.002-.008,2.004-.012,3.037.002.966.003,1.932.004,2.927.002,1.323.002,1.323.004,2.672.121,2.281.49,4.24,1.129,6.426-.99.495-.99.495-2,1c0,4.62,0,9.24,0,14-2.953.164-2.953.164-5.965.332C-79.63,122.491,-79.63,122.491,-100,126c-.737.169-1.473.337-2.232.511-11.666,2.727-22.824,6.476-33.985,10.812-1.579.6-3.18,1.143-4.783,1.677-2.312-28.578,13.16-59.893,31.188-81.125C-87.132,33.713,-33.667,0,0,0Z"
      transform="translate(494 107)" fill="#fefefe" />
  </g>
  <g>
    <path
      d="M0,0C4.008,2.987,7.21,6.321,9.469,10.84c.497,4.395.467,6.34-2.125,10-2.875,2-2.875,2-5.688,2.062-3.237-1.079-6.095-2.43-9.109-4.011-11.441-5.785-25.05-7.224-37.391-3.489-12.589,4.833-21.864,13.805-27.679,25.883-5.033,12.756-4.27,25.616.515,38.246c5.883,13.181,15.385,20.628,28.477,26.309c9.374,3.125,23.793,2.559,32.875-1.125c1.737-.905,3.449-1.861,5.125-2.875.813-.435,1.627-.869,2.465-1.317C7.17,94.545,11.936,84.058,15.719,73.277c2.637-12.172.923-23.228-4.25-34.437-.66-.99-1.32-1.98-2-3c0-1.32,0-2.64,0-4c1.32-.33,2.64-.66,4-1c5,5.75,5,5.75,5,8c.976-.047,1.951-.093,2.957-.141c1.272-.036,2.544-.072,3.855-.109c1.265-.047,2.529-.093,3.832-.141c3.356.391,3.356.391,5.285,2.188c1.844,3.794,1.558,7.45.446,11.453-2.033,2.587-4.366,3.522-7.375,4.75-.99,0-1.98,0-3,0c.087,1.003.087,1.003.176,2.027.618,13.16-3.381,26.338-11.176,36.973-.427.619-.854,1.237-1.293,1.875-7.235,9.505-19.015,15.338-30.52,17.703-16.526,2.187-30.474-.745-44.187-10.578-10.033-8.158-16.574-17.262-19.438-30.063-1.07-4.349-1.07-4.349-4.75-7.125-5.166-1.101-9.441-1.78-14.492.282-2.616,1.758-2.616,1.758-3.07,5.023-.083,1.24-.165,2.48-.25,3.758-1.047,11.101-5.48,20.322-10.598,30.129-1.46,3.119-2.437,6.193-3.402,9.496-1.852,5.976-1.852,5.976-5.125,8-1.423.742-1.423.742-2.875,1.5-2.353,3.208-2.469,6.096-2,10c1.676,2.947,3.354,5.354,5.75,7.75c1.25,1.25,1.25,1.25,1.25,3.25-3.915-.273-5.703-.75-8.75-3.313-3.511-4.193-4.774-6.878-4.637-12.527.881-4.923,3.942-8.8,7.512-12.16c1.875-1,1.875-1,4.875-1-.33-1.32-.66-2.64-1-4-.557.387-1.114.773-1.688,1.172-15.025,10.253-29.891,13.121-47.972,10.246-14.509-3.861-26.057-13.996-33.715-26.668-3.131-5.997-4.009-12.072-4.625-18.75-.943-.137-1.885-.273-2.856-.414-3.294-.614-4.757-1.287-7.144-3.586-1.238-3.715-1.537-7.14-1-11c1.5-2.438,1.5-2.438,4-4c1.35-.147,2.706-.248,4.062-.313c1.3-.227,2.599-.453,3.938-.687c2.054-3.347,2.054-3.347,3-7c.33-.66.66-1.32,1-2c1.65.33,3.3.66,5,1-.884,6.563-.884,6.563-1.525,8.968-.868,3.709-.66,7.489-.663,11.282-.018,1.232-.018,1.232-.037,2.488-.028,12.009,4.078,22.107,12.225,31.012c10.711,10.094,22.99,12.57,37.359,12.387c11.919-.448,21.8-5.681,30.078-14.387c10.878-13.252,11.933-27.263,10.563-43.75-.833-4.432-2.616-8.184-5-12-.446-.728-.892-1.457-1.352-2.207-6.912-10.098-16.216-16.443-28.078-19.399-15.858-2.434-29.422,1.77-42.473,10.746-3.036,2.012-4.725,2.876-8.414,2.715-2.683-.855-2.683-.855-4.558-2.418-1.645-3.564-1.96-6.65-1.125-10.437c5.825-11.203,17.295-17.818,28.746-22.004c15.455-4.869,35.781-5.545,50.691,1.316c3.757,2.049,6.527,3.801,8.563,7.688.977,5.083-.242,7.774-3,11.937-.985,1.366-1.98,2.724-3,4.063.557.536,1.113,1.072,1.687,1.625c7.103,7.294,11.127,15.183,15.313,24.375.582-.217,1.165-.433,1.765-.656c6.874-2.335,13.012-2.679,20.235-2.344.082-1.135.165-2.269.25-3.438c1.299-10.129,7.626-19.621,13.75-27.562-1.083-.062-1.083-.062-2.188-.125-4.081-1.27-5.298-3.452-7.812-6.875-1.509-3.018-1.501-4.623-1-8c6.051-9.975,16.805-13.601,27.617-16.266C-34.465,-12.936,-15.919,-9.993,0,0Z"
      transform="translate(606.531 301.16)" fill="#0c1030" />
  </g>
  <g>
    <path
      d="M0,0c2.707.005,5.414,0,8.122-.006c22.653-.012,22.653-.012,30.355,1.136.99.99.99.99,2,2-5.051,1.474-9.887,2.223-15.125,2.75-17.228,1.948-33.417,7.572-48.875,15.25-.726.355-1.451.71-2.199,1.075-16.012,7.887-29.563,18.017-42.801,29.925-.772.687-1.544,1.375-2.34,2.082-4.654,4.379-8.195,9.299-11.692,14.615-2.779,4.209-2.779,4.209-4.968,5.303-10.911.965-19.765.591-29-6-2.929-2.46-5.669-4.956-8-8c0-.66,0-1.32,0-2c.66,0,1.32,0,2,0-.081-.678-.162-1.356-.246-2.054-.477-7.022.708-11.026,5.078-16.539c13.562-15.053,33.086-24.226,52.168-30.407.984-.326,1.967-.652,2.981-.988c7.482-2.315,14.998-3.846,22.707-5.199.949-.167,1.899-.334,2.877-.506C-24.6,0.358,-12.504,-0.029,0,0Z"
      transform="translate(446.523 249.87)" fill="#d6d6d5" />
  </g>
  <g>
    <path
      d="M0,0c1.173.385,2.346.771,3.555,1.168C10.372,3.6,16.248,6.608,22,11c.829.614,1.658,1.227,2.512,1.859c4.685,4.031,8.775,9.575,10.004,15.719.08,4.029-.412,6.93-2.516,10.422-3.189,1.595-5.451,1.349-9,1-3.159-1.428-5.988-3.278-8.875-5.188-1.517-.974-3.035-1.947-4.555-2.917-.753-.483-1.507-.966-2.283-1.463C1.133,26.578,-4.996,23.337,-11.875,21c-1.07-.371-1.07-.371-2.161-.749-7.877-2.663-15.907-4.878-23.999-6.784-1.65-.392-3.287-.843-4.918-1.307-4.645-.244-8.338,1.383-12.609,3.09-1.369.537-1.369.537-2.765,1.084-16.053,6.474-31.314,14.035-43.485,26.541-2.555,2.614-4.003-1.630999-7.688-.874999-3.125-.062-3.625,5.937999-6.5,4.999999-2.935-3.846-4.502-7.959-4.398-12.848c1.673-9.037,8.182-15.984,15.398-21.152c19.84-12.571,39.641-15.595,62.64-15.858C-13.799,-4.575,-13.799,-4.575,0,0Z"
      transform="translate(563 455)" fill="#0c1030" />
  </g>
  <g>
    <path
      d="M0,0C7.289,3.806,10.512,11.536,13,19c1.645,23.714-3.457,42.762-19,61-.562.674-1.124,1.348-1.703,2.043-5.42,5.959-13.443,11.725-21.547,12.895-.908.02-1.815.041-2.75.062-.145-5.819.391-11.15,1.375-16.875c1.256-7.877,2.135-15.736,2.75-23.687.084-1.078.254-3.267.254-3.267s.675-11.705.754-17.585c.022-1.216.043-2.432.066-3.685.033-2.336.041-4.671.02-7.007.09-6.229.58-10.079,5.141-14.519C-15.405,3.147,-8.542,-2.508,0,0Z"
      transform="translate(676 348)" fill="#f1f1f1" />
  </g>
  <g>
    <path
      d="M0,0c9.135.764,13.866,5.936,20.117,12.188.99.329,1.98.66,3,1c.176,1.059.351,2.119.532,3.211c3.169,19.053,6.403,38.004,11.246,56.713c1.559,6.054,2.711,11.84,3.222,18.076-9.866.951-16.934-2.076-24.738-8.122-2.522-2.208-4.904-4.496-7.262-6.878-.613-.581-1.227-1.161-1.859-1.758-12.503-12.789-17.668-30.489-17.566-47.97.266-7.739,1.418-16.695,7.05-22.46c1.176-.897,1.176-.897,2.375-1.812c2-2,2-2,3.883-2.188Z"
      transform="translate(352.883 369.812)" fill="#f1f1f1" />
  </g>
  <g>
    <path
      d="M0,0C3.63,0,7.26,0,11,0c-.007,2.514-.007,2.514-.013,5.078-.442,97.656-.442,97.656.951,195.297.021.87.043,1.741.066,2.637.143,5.65.296,11.3.461,16.949.029,1.02.029,1.02.059,2.061.274,9.346.799,18.654,1.476,27.978c1.847.692,1.847.692,4,1c1.485-.99,1.485-.99,3-2c.977,1.758,1.953,3.516,2.93,5.273c1.079,1.888,1.079,1.888,3.07,3.727-11.88,0-23.76,0-36,0c.99-1.65,1.98-3.3,3-5c3.688-.812,3.688-.812,7-1c.798-2.816,1.126-5.313,1.129-8.236.003-.844.006-1.687.009-2.555-.001-.922-.003-1.843-.004-2.792.002-.983.004-1.965.007-2.978.006-3.302.005-6.603.004-9.905.003-2.364.007-4.727.01-7.091.009-6.428.012-12.855.012-19.283.001-4.014.003-8.029.006-12.043.009-13.277.013-26.554.012-39.832c0-.715,0-1.431,0-2.169c0-.716,0-1.433,0-2.171c0-11.612.009-23.224.023-34.837.015-11.925.022-23.85.021-35.775c0-6.694.002-13.389.013-20.083.01-6.296.01-12.592.003-18.889-.002-2.311.001-4.622.007-6.933.008-3.155.003-6.309-.005-9.464.005-.914.011-1.829.016-2.771C2.235,9.074,1.66,4.85,0,0Z"
      transform="translate(526 766)" fill="#fefefe" />
  </g>
  <g>
    <path
      d="M0,0C3,1,3,1,4.172,2.954C5.337,7.241,5.275,11.307,5.254,15.73c.005,1.48.005,1.48.009,2.989.008,3.308.002,6.616-.004,9.924.002,2.37.006,4.741.01,7.111.009,5.771.007,11.541.002,17.312-.005,4.689-.006,9.378-.003,14.067c0,.668,0,1.335.001,2.023c0,1.355.001,2.711.002,4.066.005,12.71-.001,25.42-.012,38.13-.009,10.91-.007,21.82.002,32.73.01,12.667.015,25.335.009,38.002-.001,1.35-.002,2.7-.002,4.05-.001.664-.001,1.329-.001,2.013-.002,4.686.001,9.371.006,14.056.005,6.302.001,12.604-.01,18.906-.003,2.318-.002,4.636.002,6.953.006,3.154-.001,6.308-.011,9.462.007,1.388.007,1.388.013,2.804-.005.843-.01,1.685-.015,2.553-.001.728-.001,1.457-.001,2.207C5,247,5,247,3,250c-4.875-.875-4.875-.875-6-2-.102-3.039-.139-6.055-.134-9.095-.002-.966-.004-1.933-.007-2.929-.006-3.264-.005-6.529-.004-9.794-.003-2.331-.007-4.661-.01-6.991-.009-6.352-.012-12.704-.012-19.055-.001-5.298-.005-10.596-.008-15.894-.008-11.787-.011-23.575-.01-35.362c0-.708,0-1.416,0-2.146c0-.708,0-1.417,0-2.148c0-11.472-.009-22.944-.023-34.415-.015-11.779-.022-23.557-.021-35.335c0-6.613-.002-13.226-.013-19.838-.01-6.225-.01-12.45-.003-18.675.002-2.283-.001-4.565-.007-6.848-.008-3.122-.003-6.243.005-9.364-.005-.899-.011-1.798-.016-2.725C-3.186,3.186,-3.186,3.186,0,0Z"
      transform="translate(524 767)" fill="#080808" />
  </g>
  <g>
    <path
      d="M0,0c7.951-.332,14.682-.273,22,3c.834.364,1.668.727,2.527,1.102C36.723,9.787,45.302,19.401,50.324,31.969C52.654,38.971,52.36,46.694,52,54c-1,1-1,1-4.969,1.022-1.772-.043-3.544-.091-5.316-.143-.931-.024-1.862-.047-2.821-.072-2.986-.076-5.971-.16-8.956-.245-2.019-.053-4.038-.105-6.057-.158C18.92,54.275,13.96,54.139,9,54c5.036-8.475,11.191-15.416,18.375-22.125.929-.871.929-.871,1.876-1.76C33.745,26,33.745,26,36,26c0-1.65,0-3.3,0-5C22.805,25.078,13.549,35.581,5,46c-.33,0-.66,0-1,0C0.88,30.535,-0.158,15.766,0,0Z"
      transform="translate(495 150)" fill="#fefefe" />
  </g>
  <g>
    <path
      d="M0,0C8.482,1.138,8.482,1.138,12,3c1.493,4.48,1.191,8.867,1.188,13.562-.002,1.633-.002,1.633-.003,3.298-.152,21.389-1.771,42.798-3.982,64.064-.297,3.042-.499,6.089-.703,9.138-.282,3.899-.756,7.679-1.451,11.525-1.075,6.301-1.752,12.597-2.338,18.96-.108,1.137-.216,2.274-.328,3.446-.34,3.585-.674,7.171-1.008,10.757-.231,2.451-.463,4.901-.695,7.352C2.115,151.067,1.556,157.034,1,163c-3.3,0-6.6,0-10,0c.419-12.552,1.01-25.038,2.197-37.541.993-10.838,1.541-21.701,2.105-32.568.04-.734.079-1.468.119-2.225.107-2.007.211-4.015.314-6.023.172-2.373.423-4.742.763-7.096.557-3.938.808-7.856,1.002-11.824.041-.771.081-1.541.123-2.334.129-2.442.253-4.884.377-7.327.163-3.217.331-6.435.5-9.652.035-.724.071-1.448.107-2.194.182-3.454.453-6.855.918-10.283.46-3.806.589-7.445.573-11.277-.002-.654-.003-1.309-.005-1.983-.005-2.058-.018-4.115-.031-6.173-.005-1.409-.009-2.818-.013-4.227C0.037,6.849,0.021,3.424,0,0Z"
      transform="translate(456 759)" fill="#fefefe" />
  </g>
  <g>
    <path
      d="M0,0C7.499,4.86,11.885,10.432,16.031,18.316c.405.657.81,1.313,1.227,1.989c1.017,2.644.519,4.328-.227,7.011-.585.147-1.17.294-1.773.446-4.505,1.177-8.92,2.402-13.262,4.09-13.784,5.254-28.756,7.66-42.773,1.632-2.467-1.314-4.87-2.608-7.192-4.168c0-.66,0-1.32,0-2c.569.194,1.137.387,1.723.586c7.417,2.502,14.476,4.593,22.277,5.414-.66-1.093-1.32-2.186-2-3.312-2.56-5.094-2.748-10.086-2-15.688c1.024-2.328,1.024-2.328,2-4-8.371,3.002-14.999,6.836-21.992,12.207-3.375,2.012-5.149,2.295-9.008,1.793-1.875-1.5-1.875-1.5-3-3c.495-1.485.495-1.485,1-3c1.65-.33,3.3-.66,5-1-.66-.66-1.32-1.32-2-2c.375-2.125.375-2.125,1-4c1.114.495,1.114.495,2.25,1c2.889,1.228,2.889,1.228,6.75,1-.464-.897-.464-.897-.937-1.812-1.063-2.188-1.063-2.188-2.063-5.188c2.373-1.129,4.749-2.253,7.125-3.375.665-.317,1.331-.634,2.016-.961C-28.054,-3.56,-12.18,-6.154,0,0Z"
      transform="translate(467.969 354.684)" fill="#080808" />
  </g>
  <g>
    <path
      d="M0,0c.086,1.079.171,2.158.26,3.27.32,4.033.643,8.066.967,12.099.139,1.74.278,3.479.416,5.219.199,2.513.401,5.025.603,7.537.061.768.121,1.536.183,2.327C2.824,35.323,3.363,40.155,4,45c-3.189-.642-5.583-1.772-8.371-3.434-.822-.484-1.644-.968-2.49-1.466-.85-.508-1.701-1.015-2.577-1.538-1.684-1.001-3.37-2-5.058-2.996-.744-.444-1.489-.888-2.256-1.345-4.084-2.218-7.393-3.485-12.06-3.346-1.186.027-1.186.027-2.395.055-.592.023-1.183.046-1.793.07c0,.66,0,1.32,0,2c.527.251,1.055.501,1.598.759c9.333,4.467,18.528,8.997,27.152,14.741.637.421,1.274.841,1.93,1.275C-0.838,50.791,0.588,51.888,2,53c0,.66,0,1.32,0,2-.995.067-.995.067-2.009.136C-13.825,56.094,-27.393,57.393,-41,60c-3.369-10.107-1.94-23.664,2.387-33.172C-31.647,14.616,-21.953,6.324,-9,1c3.206-.815,5.643-1,9-1Z"
      transform="translate(489 151)" fill="#fefefe" />
  </g>
  <g>
    <path
      d="M0,0c.956-.001,1.912-.002,2.897-.003c2.026-.001,4.052.001,6.078.005c3.05.006,6.1.001,9.15-.006c28.627-.011,28.627-.011,35.07,2.137c0,6.6,0,13.2,0,20-5.672-.63-11.269-1.316-16.898-2.192-18.218-2.717-36.106-4.299-54.539-4.246-.926.001-1.852.001-2.806.001-2.647.007-5.293.031-7.94.066-1.164.008-1.164.008-2.35.017-5.11.109-9.534,1.022-14.467,2.354-3.406.195-3.406.195-6.5.125-1.041-.018-2.083-.036-3.156-.055-.773-.023-1.547-.046-2.344-.07-.33-3.3-.66-6.6-1-10c10.638-3.837,21.13-5.253,32.375-6.063c2.092-.155,4.183-.312,6.274-.472c1.364-.099,1.364-.099,2.755-.2c2.551-.205,2.551-.205,4.818-.786C-8.395,-0.11,-4.242,-0.009,0,0Z"
      transform="translate(504.805 209.867)" fill="#fefefe" />
  </g>
  <g>
    <path
      d="M0,0c.04.937.079,1.874.12,2.84.202,4.72.415,9.44.63,14.16.041.906.082,1.812.124,2.745.576,12.593,1.294,25.17,2.149,37.747C5.111,88.361,6.65,119.04,6,150c-2.97,0-5.94,0-9,0-.859-3.437-1.148-6.011-1.211-9.504-.026-1.116-.053-2.231-.08-3.381-.042-1.82-.042-1.82-.084-3.677-.365-13.053-1.351-25.995-2.534-38.996-.798-8.797-1.475-17.58-1.8-26.409-.154-4.054-.512-8.009-1.046-12.024-.426-3.494-.626-6.995-.807-10.509-.043-.821-.085-1.642-.129-2.487-.61-13.656-.392-27.347-.309-41.013c3.83-1.802,6.781-2.196,11-2Z"
      transform="translate(614 755)" fill="#fefefe" />
  </g>
  <g>
    <path
      d="M0,0c0,.99,0,1.98,0,3-3.17-.981-6.051-2.027-9-3.562-8.565-4.104-21.626-4.056-30.633-1.344C-45.85,1.023,-49.997,4.44,-54,10c2.043-.992,4.024-2.015,5.973-3.184c9.846-5.907,20.276-8.626,31.589-5.984c4.477,1.245,8.88,2.532,13.184,4.289C-0.677,6.126,1.257,6.229,4,6c.33-.33.66-.66,1-1c2-.041,4-.043,6,0-1.875,3.875-1.875,3.875-3,5c1.65.66,3.3,1.32,5,2-.561,3.537-1.696,4.993-4.438,7.25-.926.781-.926.781-1.871,1.578C5,22,5,22,3,22c0,.99,0,1.98,0,3-9.209,5.24-16.802,6.921-27.256,6.672-2.111-.047-4.218-.041-6.33-.027C-40.267,31.601,-48.765,29.921,-58,27c0-.66,0-1.32,0-2c4.504-.3,7.98.189,12.312,1.5c5.34,1.575,10.155,1.824,15.688,1.5-.639-.763-1.279-1.526-1.938-2.312-2.815-3.669-3.2-6.253-3.187-10.75-.004-1.317-.004-1.317-.008-2.661C-35,10,-35,10,-34,8c-8.55,1.306-15.244,6.797-21.211,12.777C-57,22,-57,22,-59.227,21.691c-.585-.228-1.17-.456-1.773-.691.669-8.47,5.017-15.857,11.176-21.535C-34.09,-13.17,-16.165,-8.567,0,0Z"
      transform="translate(603 350)" fill="#080808" />
  </g>
  <g>
    <path
      d="M0,0c2.693.556,5.387,1.104,8.082,1.652c1.241.254,2.482.507,3.76.768c3.78.726,7.52,1.236,11.346,1.642c1.67.314,3.339.637,5,1c0,1.32,0,2.64,0,4-2.376,1.813-2.376,1.813-5,3-.991-.495-.991-.495-2-1-13.137-.076-25.502,2.158-37.813,6.75-7.421,2.582-15.115,1.522-22.625-.175-3.747-.84-7.529-1.459-11.312-2.11-2.25-.465-2.25-.465-4.25-1.465-3.496-.134-6.679-.057-10.126.563-3.001.457-4.936.04-7.874-.563-2.726.378-2.726.378-5,1c.312-2.374.312-2.374,1-5c3.47-2.313,5.26-2.337,9.374-2.687c7.754-.823,14.806-3.139,22.127-5.749C-29.614,-3.953,-16.165,-3.421,0,0Z"
      transform="translate(544.812 482.938)" fill="#080808" />
  </g>
  <g>
    <path
      d="M0,0C3.61,1.045,6.781,2.397,10.062,4.188c11.011,5.614,23.894,9.939,36.172,11.425c2.349.329,4.477.826,6.766,1.414c6.055,1.373,12.069,1.264,18.25,1.223c1.138.008,2.276.015,3.449.023c10.647-.024,20.831-1.578,31.18-4.003c2.333-.297,3.876.109,6.121.73-1.886,2.16-3.802,4.272-5.75,6.375-.519.603-1.039,1.207-1.574,1.828-6.548,6.933-14.534,6.755-23.619,7.052-2.87.063-5.739.069-8.61.061-2.181-.003-4.36.02-6.541.045-23.07.104-39.129-6.055-56.396-21.051C8.142,8.123,6.767,6.946,5.391,5.77C1.329,2.277,1.329,2.277,0,1c0-.33,0-.66,0-1Z"
      transform="translate(458 680)" fill="#fefefe" />
  </g>
  <g>
    <path
      d="M0,0c1.605.141,3.209.288,4.812.438.894.081,1.787.162,2.708.246C10,1,10,1,13,2c2.155.095,4.312.131,6.469.133c1.294.001,2.588.002,3.922.004c1.014-.003,1.014-.003,2.048-.007c2.026-.005,4.051,0,6.077.007C39.068,2.129,46.495,1.864,54,1c0,.66,0,1.32,0,2-.66,0-1.32,0-2,0-.265.561-.53,1.122-.803,1.699-1.3,2.498-2.777,4.774-4.349,7.11-.612.912-1.224,1.824-1.854,2.763-.637.946-1.275,1.891-1.932,2.866-1.26,1.872-2.519,3.746-3.777,5.621-.558.828-1.116,1.656-1.691,2.509-1.6,2.44-3.11,4.92-4.594,7.432-3.734-1.245-4.177-2.444-6.312-5.688C19.458,17.076,10.255,8.179,0,1c0-.33,0-.66,0-1Z"
      transform="translate(497 713)" fill="#fefefe" />
  </g>
  <g>
    <path
      d="M0,0c.66,0,1.32,0,2,0-.675,11.706-6.402,21.569-13,31-.638.937-1.276,1.874-1.934,2.84C-33.13,61.813,-61.905,81.95,-92,98c-.787.422-1.574.843-2.385,1.277-2.447,1.3-4.903,2.578-7.365,3.848-.763.403-1.526.806-2.312,1.221-.717.363-1.434.726-2.172,1.099-.632.325-1.263.65-1.913.985-2.292.705-3.614.328-5.853-.43.668-.366,1.337-.733,2.025-1.111C-87.233,91.282,-64.245,76.659,-43,58c1.487-1.301,1.487-1.301,3.004-2.629C-34.579,50.544,-29.594,45.613,-25,40c.951-1.12.951-1.12,1.922-2.262C-14.536,27.458,-8.37,16.1,-2.566,4.141C-1,1,-1,1,0,0Z"
      transform="translate(721 621)" fill="#080808" />
  </g>
  <g>
    <path
      d="M0,0C0,0,6.905,5.935,9,11c.363,3.438.363,3.438.312,7-.003,1.176-.007,2.351-.011,3.562C9,25.003,8.23,27.785,7,31c-.66,0-1.32,0-2,0-.037-.918-.075-1.836-.113-2.781-.445-11.146-.445-11.146-5.239-20.989-1.571-1.425-1.571-1.425-3.636-1.25-2.927,1.484-3.712,3.445-5.2,6.332-.509.966-1.018,1.932-1.542,2.926-1.054,2.293-1.785,4.3-2.27,6.762c1.114.309,1.114.309,2.25.625C-6.94,24.53,-5.829,26.138,-4,30c1.137,6.279.556,10.844-3,16.188-.976,1.289-1.967,2.567-3,3.812-.99-.33-1.98-.66-3-1c.33-.949.66-1.897,1-2.875c1.3-4.581,1.767-9.41,1-14.125-2.227-2.839-4.628-3.815-8-5-1.067-8.843,2.276-15.663,7-23c4.049-3.823,6.383-4.887,12-4Z"
      transform="translate(674 361)" fill="#0c1030" />
  </g>
  <g>
    <path
      d="M0,0c4.75.403,7.055,1.424,10.188,5.047c1.582,2.042,3.058,4.122,4.5,6.265.43.64.861,1.279,1.304,1.938c1.471,2.354,2.673,4.306,2.758,7.125-1.062,1.937-1.062,1.937-3.625,4.813-2.599,2.866-2.599,2.866-3.063,6c1.085,5.421,4.066,9.565,7.938,13.437c1.688,1.687,1.688,1.687,1.688,4.687-3.415-.068-6.041-.196-8.731-2.449-4.544-5.172-6.556-9.64-6.582-16.613-.017-1.022-.034-2.044-.051-3.098.41-3.202,1.356-4.392,3.364-6.84c0-4.716-4.602-11.632-4.602-11.632s-1.41-1.596-4.024-2.118c-2.509.561-2.509.561-4.011,2.684-1.927,4.334-1.687,8.197-1.551,12.879.014.884.027,1.767.041,2.678.035,2.17.089,4.34.147,6.509-.661,0-1.32,0-2,0-3.179-7.681-5.273-17.1-2.168-25.16C-6.144,2.59,-4.267,0.403,0,0Z"
      transform="translate(356.312 384.688)" fill="#0c1030" />
  </g>
  <g>
    <path
      d="M0,0c1.095.238,2.19.477,3.318.723C5.985,1.305,8.65,1.898,11.312,2.5c-1,2-1,2-2.977,2.67-.849.193-1.698.385-2.573.584-.926.215-1.853.429-2.807.65C1.492,6.73,1.492,6.73,0,7.062c-.964.222-1.927.443-2.92.67-1.8.413-3.6.823-5.402,1.227-1.499.343-2.995.706-4.483,1.096-11.311,2.672-23.003-.572-33.883-3.555c0-.66,0-1.32,0-2c1.158-.338,2.316-.675,3.508-1.023c1.539-.451,3.078-.901,4.618-1.352.76-.222,1.521-.443,2.304-.672.748-.219,1.496-.438,2.266-.664.745-.216,1.491-.432,2.259-.655c2.207-.652,2.207-.652,4.913-1.798C-17.836,-4.061,-8.87,-2.01,0,0Z"
      transform="translate(539.688 486.5)" fill="#fff" />
  </g>
  <g>
    <path
      d="M0,0c.738,1.727.738,1.727,1,4-7.788,11.011-21.895,17.719-34.734,20.617-19.085,2.237-37.55.21-53.567-11.265C-89.25,11.75,-89.25,11.75,-92,9c0-.66,0-1.32,0-2c4.171,1.242,7.838,2.881,11.655,4.92c11.01,5.85,20.049,7.207,32.47,7.33.931.01,1.862.019,2.821.029c15.672-.078,31.967-6.037,43.242-17.217C-1.214,1.382,-0.616,0.701,0,0Z"
      transform="translate(567 506)" fill="#080808" />
  </g>
  <g>
    <path
      d="M0,0c-.24.824-.24.824-.484,1.664C-2,8.529,-1.721,14.954,2,21c0,.66,0,1.32,0,2-9.066.697-16.706-2.682-25-6-.99-.33-1.98-.66-3-1c1.365-4.096,4.167-5.612,7.562-8c.597-.438,1.193-.877,1.807-1.328C-11.629,3.112,-6.297,0,0,0Z"
      transform="translate(442 365)" fill="#f2f2f2" />
  </g>
  <g>
    <path
      d="M0,0c.536.227,1.072.454,1.625.688-.33.66-.66,1.319-1,2-.728,7.782.663,12.494,5,19-10.253,1.016-19.328-2.021-29-5c1.543-4.262,4.745-6.448,8.25-9.063.561-.434,1.121-.868,1.699-1.314C-4.353,-0.573,-4.353,-0.573,0,0Z"
      transform="translate(568.375 357.312)" fill="#f2f2f2" />
  </g>
  <g>
    <path
      d="M0,0c.856.446,1.712.892,2.594,1.352.629.337,1.258.675,1.906,1.023.33-.66.66-1.32,1-2c.495.99.495.99,1,2c1.895.465,1.895.465,4.062.625c1.3.124,2.599.248,3.938.375c0,.33,0,.66,0,1C6.366,7.832,-0.088,5.382,-7.887,2.312c-10.532-3.778-20.423-2.03-30.613,2.063-3.466,1.822-6.733,3.847-10,6-.99.495-.99.495-2,1c1.544-6.368,6.808-9.749,11.895-13.336C-27.634,-8.063,-10.635,-5.613,0,0Z"
      transform="translate(598.5 350.625)" fill="#0c1030" />
  </g>
  <g>
    <path
      d="M0,0C2.209,1.898,4.064,3.81,6,6c-.33.66-.66,1.32-1,2-.461-.326-.923-.652-1.398-.988C-5.986,0.588,-15.51,-1.192,-27,0c-3.509.903-6.861,1.965-10.258,3.223-2.804.795-4.061.797-6.742-.223c0-.66,0-1.32,0-2c1.85-.823,3.705-1.633,5.562-2.438c1.033-.452,2.066-.904,3.129-1.371C-23.998,-6.881,-9.977,-7.19,0,0Z"
      transform="translate(469 360)" fill="#636569" />
  </g>
  <g>
    <path
      d="M0,0c0,.99,0,1.98,0,3-3.17-.981-6.051-2.027-9-3.562-8.406-4.028-21.737-4.146-30.551-1.286-1.858.889-3.691,1.833-5.48,2.852-.65.329-1.3.657-1.969.996-.66-.33-1.32-.66-2-1c2.812-4.601,6.032-6.478,10.949-8.277C-23.652,-10.688,-12.484,-6.617,0,0Z"
      transform="translate(603 350)" fill="#080808" />
  </g>
  <g>
    <path
      d="M0,0c4.987-.355,8.829-.585,13.375,1.688c6.41,5.646,6.41,5.646,7.125,11.187-.263,5.35-2.733,9.358-6.5,13.125-1.32,0-2.64,0-4,0c1.832-4.71,1.832-4.71,3.125-6.938C14.372,16.124,14.452,14.163,14,11C11.349,7.438,8.856,5.8,4.75,4.375C3.513,3.921,2.275,3.467,1,3c-.33-.99-.66-1.98-1-3Z"
      transform="translate(539 417)" fill="#080808" />
  </g>
  <g>
    <path
      d="M0,0C2.97,0,5.94,0,9,0c.081,2.584.141,5.165.188,7.75.037,1.094.037,1.094.076,2.211.046,3.384-.011,5.618-1.776,8.555-.491.489-.982.979-1.488,1.484-3-1-3-1-3.949-2.715C0.069,11.32,-0.265,6.282,0,0Z"
      transform="translate(611 910)" fill="#f2f2f2" />
  </g>
  <g>
    <path
      d="M0,0C4.796,1.869,7.852,4.199,10,9c0,.66,0,1.32,0,2-4.352-.659-7.972-2.264-12-4-2.32-.742-4.645-1.375-7-2c.375-1.938.375-1.938,1-4c2.879-1.44,4.79-1.303,8-1Z"
      transform="translate(500 440)" fill="#080808" />
  </g>
  <g>
    <path
      d="M0,0c.33,1.32.66,2.64,1,4-.568.159-1.137.317-1.723.48C-6.376,6.189,-10.301,8.452,-15,12c-.66,0-1.32,0-2,0c.504-4.409,1.962-6.788,5-10c3.664-2.748,7.606-2.146,12-2Z"
      transform="translate(541 438)" fill="#080808" />
  </g>
  <g>
    <path d="M0,0C2.64,0,5.28,0,8,0c.274,5.394.361,8.519-3,13-3-1-3-1-4.188-2.562C-0.37,6.889,-0.124,3.733,0,0Z"
      transform="translate(448 927)" fill="#f2f2f2" />
  </g>
  <g>
    <path
      d="M0,0c.568.193,1.137.387,1.723.586C4.145,1.403,6.572,2.201,9,3c1.733.588,1.733.588,3.5,1.188c4.244.985,8.167.989,12.5.812c0,.66,0,1.32,0,2c5.445.495,5.445.495,11,1c0,.33,0,.66,0,1-13.314.469-24.527.71-36-7c0-.66,0-1.32,0-2Z"
      transform="translate(420 382)" fill="#1b1b1b" />
  </g>
  <g>
    <path
      d="M0,0C2.541,2.248,3.675,4.201,4.824,7.379c.306.838.613,1.677.928,2.541.309.872.617,1.744.936,2.642.32.876.64,1.752.97,2.655C10,21.703,10,21.703,10,24c-.66,0-1.32,0-2,0-.33.66-.66,1.32-1,2-1.176-3.58-2.339-7.165-3.5-10.75-.334-1.016-.668-2.032-1.012-3.078-.316-.98-.631-1.96-.957-2.969-.293-.901-.586-1.801-.888-2.729C0,4,0,4,0,0Z"
      transform="translate(829 767)" fill="#dfe0e0" />
  </g>
  <g>
    <path d="M0,0c.33,0,.66,0,1,0c1.33,10.337.486,19.745-1,30-.66,0-1.32,0-2,0c.523-10.014,1.08-20.013,2-30Z"
      transform="translate(474 819)" fill="#9e9e9d" />
  </g>
  <g>
    <path d="M0,0C5,2,5,2,6.312,4.125C6.539,4.744,6.766,5.363,7,6C4.69,7.65,2.38,9.3,0,11C0,7.37,0,3.74,0,0Z"
      transform="translate(599 362)" fill="#dfe0e0" />
  </g>
  <g>
    <path
      d="M0,0c.66.33,1.32.66,2,1c0,.66,0,1.32,0,2-2.243,1.203-4.493,2.387-6.75,3.562-.951.514-.951.514-1.922,1.038-4.833,2.492-4.833,2.492-7.544,1.99-.589-.195-1.177-.39-1.784-.59c2.62-1.531,5.245-3.05,7.875-4.562.746-.438,1.493-.876,2.262-1.327.715-.409,1.431-.818,2.168-1.24.66-.382,1.319-.764,1.999-1.158C-1.136,0.477,-0.577,0.242,0,0Z"
      transform="translate(623 718)" fill="#1b1b1b" />
  </g>
  <g>
    <path
      d="M0,0c.33,0,.66,0,1,0C1,8.25,1,16.5,1,25c-4.118-6.176-4.118-6.176-3.688-9.188C-2,14,-2,14,-1,13c.235-2.183.414-4.372.562-6.562.084-1.198.168-2.396.254-3.629.061-.927.122-1.854.184-2.809Z"
      transform="translate(310 885)" fill="#9e9e9d" />
  </g>
  <g>
    <path
      d="M6,3c0,.66,0,1.32,0,2-1.623.222-3.249.427-4.875.625-1.357.174-1.357.174-2.742.352-.787.007-1.573.015-2.383.023-.66-.66-1.32-1.32-2-2c1.207-.433,1.207-.433,2.438-.875C-0.867,2.267,-0.867,2.267,0,0"
      transform="translate(567 346)" fill="#636569" />
  </g>
  <g>
    <path
      d="M0,0c.66,0,1.32,0,2,0c.33,7.92.66,15.84,1,24-.66,0-1.32,0-2,0-.33-5.94-.66-11.88-1-18-.66.99-1.32,1.98-2,3c.875-6.75.875-6.75,2-9Z"
      transform="translate(754 866)" fill="#3d3e40" />
  </g>
  <g>
    <path
      d="M0,0C1.65,1.32,3.3,2.64,5,4c-.33.99-.66,1.98-1,3-2.875-.312-2.875-.312-6-1-.66-.99-1.32-1.98-2-3c1.32-.99,2.64-1.98,4-3Z"
      transform="translate(418 362)" fill="#636569" />
  </g>
  <g>
    <path
      d="M0,0c2.125.375,2.125.375,4,1c.625,1.875.625,1.875,1,4-.66.66-1.32,1.32-2,2-2.125-.375-2.125-.375-4-1-.625-1.875-.625-1.875-1-4c.66-.66,1.32-1.32,2-2Z"
      transform="translate(574 358)" fill="#f2f2f2" />
  </g>
  <g>
    <path
      d="M0,0c1.675.286,3.344.618,5,1-.25,1.875-.25,1.875-1,4C1.938,6.25,1.938,6.25,0,7c-.66-.66-1.32-1.32-2-2c.536-3.536.536-3.536,2-5Z"
      transform="translate(446 368)" fill="#f2f2f2" />
  </g>
  <g>
    <path d="M0,0C1.98,1.65,3.96,3.3,6,5C4.355,6.688,2.687,8.354,1,10c-.33,0-.66,0-1,0C0,6.7,0,3.4,0,0Z"
      transform="translate(473 372)" fill="#f2f2f2" />
  </g>
  <g>
    <path d="M0,0C2.741,2.367,4.025,4.506,5,8c-.375,3.312-.375,3.312-1,6C1.518,9.39,0,5.271,0,0Z"
      transform="translate(829 767)" fill="#d6d6d5" />
  </g>
  <g>
    <path
      d="M0,0c.99,0,1.98,0,3,0-.66,3.63-1.32,7.26-2,11-.66-.66-1.32-1.32-2-2-.99.495-.99.495-2,1c.99-3.3,1.98-6.6,3-10Z"
      transform="translate(220 796)" fill="#dfe0e0" />
  </g>
  <g>
    <path d="M0,0c0,.33,0,.66,0,1-3.823,1.423-6.913,2.24-11,2c0-.99,0-3,0-3s6.792-.621,11,0Z"
      transform="translate(613 354)" fill="#636569" />
  </g>
  <g>
    <path d="M0,0C3.63,0,7.26,0,11,0c-.33.99-.66,1.98-1,3-4.455.495-4.455.495-9,1-.33-1.32-.66-2.64-1-4Z"
      transform="translate(526 766)" fill="#d6d6d5" />
  </g>
  <g>
    <path d="M0,0c5.538.615,5.538.615,7.875,2.562C8.432,3.274,8.432,3.274,9,4c-3,1-3,1-5.625.25C1,3,1,3,0,0Z"
      transform="translate(475 303)" fill="#818384" />
  </g>
  <g>
    <path d="M0,0c1.98.66,3.96,1.32,6,2-.33.99-.66,1.98-1,3-2.97-.495-2.97-.495-6-1c.33-1.32.66-2.64,1-4Z"
      transform="translate(526 762)" fill="#c4c5c3" />
  </g>
  <g>
    <path
      d="M0,0c.66.33,1.32.66,2,1c0,.99,0,1.98,0,3-1.98.33-3.96.66-6,1-.33-.99-.66-1.98-1-3c2.375-1.062,2.375-1.062,5-2Z"
      transform="translate(430 359)" fill="#636569" />
  </g>
  <g>
    <path d="M0,0c.66.66,1.32,1.32,2,2-5.94.495-5.94.495-12,1c4.176-3.132,5.073-3.536,10-3Z"
      transform="translate(485 251)" fill="#dfe0e0" />
  </g>
  <g>
    <path d="M0,0c.99.33,1.98.66,3,1-2.312,2.5-2.312,2.5-5,5-.99,0-1.98,0-3,0c1.65-1.98,3.3-3.96,5-6Z"
      transform="translate(389 288)" fill="#c4c5c3" />
  </g>
  <g>
    <path d="M0,0C0,3.3,0,6.6,0,10c-2.125-3.188-2.502-5.265-3-9c2-1,2-1,3-1Z" transform="translate(311 900)"
      fill="#b4b5b4" />
  </g>
  <g>
    <path
      d="M0,0c1.938.312,1.938.312,4,1c.33.99.66,1.98,1,3-1.32.33-2.64.66-4,1-.66-.99-1.32-1.98-2-3c.33-.66.66-1.32,1-2Z"
      transform="translate(603 376)" fill="#c4c5c3" />
  </g>
  <polygon
    points="-1.578084,-97.397501 97.388187,-31.64334 60.18921,82.84334 -60.18921,82.84334 -97.388187,-31.64334 -1.578084,-97.397501"
    transform="matrix(.008889 0.00098-.00789 0.071569 590.838228 489.635476)" fill="#fff" stroke-width="0" />
  <polygon
    points="-164.852832,-135.005144 97.388187,-31.64334 60.18921,82.84334 -60.18921,82.84334 -97.388187,-31.64334 -164.852832,-135.005144"
    transform="matrix(.008889 0.00098-.00789 0.071569 590.838228 489.635476)" fill="#fff" stroke-width="0" />
  <polygon
    points="-164.852832,-135.005144 97.388187,-31.64334 60.18921,82.84334 -60.18921,82.84334 -97.388187,-31.64334 -164.852832,-135.005144"
    transform="matrix(.008889 0.00098-.00789 0.071569 461.471921 492.473244)" fill="#fff" stroke-width="0" />
  <polygon
    points="-110.837102,-128.240685 97.388187,-31.64334 60.18921,82.84334 -60.18921,82.84334 -97.388187,-31.64334 -110.837102,-128.240685"
    transform="matrix(.008782 0.001687-.013581 0.070711 457.774547 491.904395)" fill="#fff" stroke-width="0" />
  <polygon
    points="-202.048454,-157.080433 97.388187,-31.64334 60.18921,82.84334 -60.18921,82.84334 -97.388187,-31.64334 -202.048454,-157.080433"
    transform="matrix(.006933 0.003045-.034015 0.077449 453.026859 494.398457)" fill="#fff" stroke-width="0" />
  <polygon
    points="-22.437666,-145.725279 97.388187,-31.64334 60.18921,82.84334 -60.18921,82.84334 -97.388187,-31.64334 -22.437666,-145.725279"
    transform="matrix(.009465 0.004331-.039932 0.087273 447.972185 494.433139)" fill="#fff" stroke-width="0" />
  <polygon
    points="-1.578084,-97.397501 97.388187,-31.64334 60.18921,82.84334 -60.18921,82.84334 -97.388187,-31.64334 -1.578084,-97.397501"
    transform="matrix(.008782 0.001687-.013581 0.070711 587.140853 489.066626)" fill="#fff" stroke-width="0" />
  <polygon
    points="-1.578084,-97.397501 97.388187,-31.64334 60.18921,82.84334 -60.18921,82.84334 -97.388187,-31.64334 -1.578084,-97.397501"
    transform="matrix(.006933 0.003045-.031498 0.071717 583.324189 489.000375)" fill="#fff" stroke-width="0" />
  <polygon
    points="-1.578084,-97.397501 97.388187,-31.64334 60.18921,82.84334 -60.18921,82.84334 -97.388187,-31.64334 -1.578084,-97.397501"
    transform="matrix(.009465 0.004331-.039161 0.085588 579.666052 488.569545)" fill="#fff" stroke-width="0" />
  <polygon
    points="-110.837102,-128.240685 97.388187,-31.64334 60.18921,82.84334 -60.18921,82.84334 -97.388187,-31.64334 -110.837102,-128.240685"
    transform="matrix(.008782 0.001687-.013581 0.070711 587.140853 489.066626)" fill="#fff" stroke-width="0" />
  <polygon
    points="-202.048454,-157.080433 97.388187,-31.64334 60.18921,82.84334 -60.18921,82.84334 -97.388187,-31.64334 -202.048454,-157.080433"
    transform="matrix(.006933 0.003045-.031498 0.071717 583.324189 489.000375)" fill="#fff" stroke-width="0" />
  <polygon
    points="-22.437666,-145.725279 97.388187,-31.64334 60.18921,82.84334 -60.18921,82.84334 -97.388187,-31.64334 -22.437666,-145.725279"
    transform="matrix(.009465 0.004331-.039161 0.085588 579.666052 488.569545)" fill="#fff" stroke-width="0" />
  <ellipse rx="102.4" ry="102.4" transform="matrix(-.028748-.003023 0.001655-.015739 600.298343 436.991462)"
    fill="#8597ba" stroke-width="0" />
  <ellipse rx="102.4" ry="102.4" transform="matrix(-.03504-.003685 0.001615-.015357 615.597208 440.811558)"
    fill="#d2dbed" stroke-width="0" />
  <ellipse rx="102.4" ry="102.4" transform="matrix(-.03504-.003685 0.001615-.015357 615.597208 440.811558)"
    fill="#8597ba" stroke-width="0" />
  <ellipse rx="102.4" ry="102.4" transform="matrix(-.03504-.003685 0.001615-.015357 441.832411 438.001008)"
    fill="#8597ba" stroke-width="0" />
  <ellipse rx="102.4" ry="102.4" transform="matrix(-.015239-.001603 0.002103-.02 602 429.88746)" fill="#8597ba"
    stroke-width="0" />
  <ellipse rx="102.4" ry="102.4" transform="matrix(-.025564-.002689 0.001965-.018683 590.728006 435.345464)"
    fill="#d2dbed" stroke-width="0" />
  <ellipse rx="102.4" ry="102.4" transform="matrix(-.025564-.002689 0.001965-.018683 603.1173 439.447042)"
    fill="#8597ba" stroke-width="0" />
  <ellipse rx="102.4" ry="102.4" transform="matrix(-.025564-.002689 0.001965-.018683 590.728006 435.345464)"
    fill="#8597ba" stroke-width="0" />
  <ellipse rx="102.4" ry="102.4" transform="matrix(-.025564-.002689 0.001965-.018683 445.98923 442.622647)"
    fill="#8597ba" stroke-width="0" />
</svg>